<svg width="33" height="31" viewBox="0 0 33 31" fill="none" xmlns="http://www.w3.org/2000/svg">
<path d="M32.168 8.7081L30.552 13.2201V13.2041C29.72 12.9001 28.904 12.9481 28.104 13.3321C27.304 13.7161 26.744 14.3241 26.44 15.1561C26.136 15.9881 26.184 16.8041 26.552 17.6041C26.936 18.4041 27.544 18.9481 28.392 19.2521V19.2681L26.776 23.7801L2.67997 15.1721L4.26397 10.7081C5.09597 11.0121 5.91197 10.9641 6.71197 10.5801C7.51197 10.2121 8.05597 9.6041 8.35997 8.7721C8.66397 7.9401 8.61597 7.1241 8.23197 6.3241C7.86397 5.5401 7.25597 4.9961 6.42397 4.6921L8.05597 0.100098L32.168 8.7081ZM24.216 17.8121L26.408 11.7961C26.6 11.3001 26.568 10.7561 26.344 10.2761C26.12 9.7961 25.72 9.4281 25.224 9.2361L13.192 4.8681C12.168 4.5001 11 5.0601 10.632 6.0521L8.43997 12.0681C8.05597 13.1081 8.59997 14.2601 9.62397 14.6281L21.656 19.0121C21.88 19.0921 22.104 19.1401 22.344 19.1401C23.176 19.1401 23.944 18.6121 24.216 17.8121ZM12.92 5.6201L24.936 9.9881C25.24 10.1001 25.48 10.3241 25.624 10.6121C25.752 10.9001 25.768 11.2201 25.656 11.5241L23.464 17.5401C23.256 18.1481 22.536 18.4841 21.928 18.2601L9.91197 13.8761C9.28797 13.6521 8.96797 12.9641 9.19197 12.3401L11.384 6.3241C11.544 5.8601 12.008 5.5401 12.504 5.5401C12.648 5.5401 12.776 5.5721 12.92 5.6201ZM23.832 25.0441C24.392 25.4761 25.032 25.7001 25.752 25.7001H25.768V30.5001H0.167969V25.7641C1.04797 25.7641 1.81597 25.4441 2.42397 24.8201C3.04797 24.2121 3.36797 23.4441 3.36797 22.5641C3.36797 21.6841 3.04797 20.9321 2.42397 20.3081C1.79997 19.6841 1.04797 19.3641 0.167969 19.3641V14.5001H1.84797L1.39997 15.7801L5.99197 17.4121C5.17597 17.6681 4.56797 18.4041 4.56797 19.3001V25.7001C4.56797 26.8041 5.46397 27.7001 6.56797 27.7001H19.368C20.472 27.7001 21.368 26.8041 21.368 25.7001V22.9001L22.696 23.3801C22.888 24.0681 23.272 24.6281 23.832 25.0441ZM5.36797 25.7001V19.3001C5.36797 18.6441 5.91197 18.1001 6.56797 18.1001H7.89597L20.568 22.6281V25.7001C20.568 26.3561 20.024 26.9001 19.368 26.9001H6.56797C5.91197 26.9001 5.36797 26.3561 5.36797 25.7001Z" fill="#BA50C0"/>
</svg>
