<svg width="33" height="33" viewBox="0 0 33 33" fill="none" xmlns="http://www.w3.org/2000/svg">
<g clip-path="url(#clip0_3963_18047)">
<path fill-rule="evenodd" clip-rule="evenodd" d="M6.92581 20.9472L16.168 32.5L25.4102 20.9472C27.1954 18.7158 28.168 15.9431 28.168 13.0853V12.5C28.168 5.87258 22.7954 0.5 16.168 0.5C9.54055 0.5 4.16797 5.87258 4.16797 12.5V13.0853C4.16797 15.9431 5.14057 18.7158 6.92581 20.9472ZM16.168 16.5C18.3771 16.5 20.168 14.7091 20.168 12.5C20.168 10.2909 18.3771 8.5 16.168 8.5C13.9588 8.5 12.168 10.2909 12.168 12.5C12.168 14.7091 13.9588 16.5 16.168 16.5Z" fill="#BA50C0"/>
</g>
<defs>
<clipPath id="clip0_3963_18047">
<rect width="32" height="32" fill="white" transform="translate(0.167969 0.5)"/>
</clipPath>
</defs>
</svg>
