<svg width="33" height="33" viewBox="0 0 33 33" fill="none" xmlns="http://www.w3.org/2000/svg">
<path fill-rule="evenodd" clip-rule="evenodd" d="M18.5733 7.61119C18.5733 5.15659 20.5722 3.16675 23.0379 3.16675C25.5037 3.16675 27.5026 5.15659 27.5026 7.61119C27.5026 10.0658 25.5037 12.0556 23.0379 12.0556C21.7929 12.0556 20.6677 11.548 19.8587 10.7314L13.6782 14.9394C13.7353 15.2234 13.7653 15.5167 13.7653 15.8163C13.7653 16.4097 13.6479 16.9769 13.4354 17.4953L20.2123 21.9478C20.9815 21.3215 21.9657 20.9445 23.0379 20.9445C25.5037 20.9445 27.5026 22.9343 27.5026 25.389C27.5026 27.8435 25.5037 29.8334 23.0379 29.8334C20.5722 29.8334 18.5733 27.8435 18.5733 25.389C18.5733 24.7461 18.7109 24.1341 18.9582 23.5815L12.236 19.165C11.4519 19.8465 10.4247 20.2607 9.30058 20.2607C6.83483 20.2607 4.83594 18.2709 4.83594 15.8163C4.83594 13.3617 6.83483 11.3719 9.30058 11.3719C10.7185 11.3719 11.9806 12.0297 12.7979 13.0537L18.7878 8.97531C18.6485 8.54487 18.5733 8.08621 18.5733 7.61119Z" fill="#BA50C0"/>
</svg>
