<svg width="131" height="47" viewBox="0 0 131 47" fill="none" xmlns="http://www.w3.org/2000/svg">
<g clip-path="url(#clip0_5701_44087)">
<path d="M33.1505 46.9999C32.4094 46.8526 31.655 46.7465 30.9272 46.5476C28.9485 46.0054 27.4147 44.868 26.3686 42.9806C27.7609 42.1747 29.1297 41.3835 30.4881 40.5982C32.3607 42.5813 34.2525 43.1279 36.1841 42.2704C37.653 41.6178 38.1937 40.2873 37.9727 37.8636C37.9285 37.8607 37.8652 37.8386 37.8446 37.8592C35.7598 39.9558 33.2403 40.1724 30.6148 39.3134C27.758 38.3793 25.9885 36.2931 25.3667 33.3743C24.7391 30.4262 25.3741 27.7653 27.4736 25.4698C29.9665 22.7456 35.1336 21.9971 37.9772 25.0558C37.9772 24.5313 37.9772 24.0863 37.9772 23.5824C39.6096 23.5824 41.164 23.5824 42.8009 23.5824C42.8142 23.8403 42.8363 24.0981 42.8378 24.3559C42.8392 29.1871 42.8451 34.0167 42.8378 38.8478C42.8319 43.4344 40.2167 46.3354 35.6301 46.8658C35.4386 46.8879 35.2515 46.9528 35.0629 46.997C34.4279 46.9999 33.7884 46.9999 33.1505 46.9999ZM38.0169 31.403C38.0169 29.1546 36.3963 27.5958 34.0536 27.5929C31.739 27.5914 30.0756 29.1826 30.0756 31.4015C30.0756 33.6248 31.7316 35.2116 34.0536 35.2101C36.3918 35.2101 38.0155 33.6499 38.0169 31.403Z" fill="white"/>
<path d="M1.70206e-05 16.9775C1.63691 16.9775 3.27381 16.9775 4.99027 16.9775C4.99027 19.6325 4.99027 22.2138 4.99027 24.9381C6.83343 23.064 8.97716 22.7546 11.2638 23.2688C13.739 23.8257 15.6131 25.9724 15.7163 28.6716C15.8592 32.3903 15.7516 36.1179 15.7516 39.8926C14.1752 39.8926 12.5913 39.8926 10.8852 39.8926C10.8852 39.6554 10.8852 39.4005 10.8852 39.1442C10.8852 36.2991 10.9014 33.4555 10.8793 30.6105C10.8631 28.4358 9.31751 27.2321 7.2003 27.6991C5.84334 27.9982 5.02415 29.0252 5.00353 30.6105C4.96817 33.4305 4.98732 36.2505 4.9829 39.0705C4.9829 39.3342 4.9829 39.5979 4.9829 39.9383C3.27086 39.9383 1.63397 39.9383 -0.00292969 39.9383C1.70206e-05 32.2827 1.70206e-05 24.6301 1.70206e-05 16.9775Z" fill="white"/>
<path d="M130.981 32.4301C130.598 33.7223 130.598 33.7223 129.178 33.7223C126.135 33.7223 123.093 33.7223 120.052 33.7223C119.784 33.7223 119.517 33.7223 119.128 33.7223C119.446 34.7006 120.043 35.3179 120.896 35.6126C122.764 36.2579 124.56 36.1975 126.199 34.7654C127.463 35.4903 128.749 36.2284 130.104 37.0049C129.017 38.5755 127.582 39.5641 125.805 40.0341C123.722 40.5866 121.624 40.5513 119.564 39.8956C116.237 38.8363 114.023 35.8778 113.871 32.3609C113.696 28.2915 115.639 24.9646 119.118 23.6887C125.556 21.3269 130.392 25.6984 130.854 30.4632C130.871 30.6297 130.937 30.7918 130.981 30.9553C130.981 31.4489 130.981 31.9395 130.981 32.4301ZM125.936 30.0109C125.595 28.234 124.123 27.2749 122.106 27.4458C120.432 27.5872 119.134 28.6981 119.131 30.0109C121.381 30.0109 123.632 30.0109 125.936 30.0109Z" fill="white"/>
<path d="M100.045 38.5341C100.022 39.0498 100.004 39.4579 99.9848 39.8985C98.3376 39.8985 96.7331 39.8985 95.0933 39.8985C95.0933 32.268 95.0933 24.6802 95.0933 17.0291C96.7007 17.0291 98.3037 17.0291 100.001 17.0291C100.001 19.6133 100.001 22.2153 100.001 24.9807C101.952 23.1243 104.157 22.7398 106.522 23.254C109.844 23.9744 112.46 27.1937 112.707 30.7254C112.866 32.9869 112.489 35.1056 111.173 37.018C108.292 41.2097 102.761 41.2775 100.045 38.5341ZM100.019 31.7493C100.025 34.1524 101.536 35.7023 103.886 35.7156C106.223 35.7274 107.832 34.0905 107.822 31.7125C107.811 29.3743 106.205 27.7359 103.92 27.73C101.563 27.7241 100.013 29.3212 100.019 31.7493Z" fill="white"/>
<path d="M50.6599 39.9014C48.9921 39.9014 47.4053 39.9014 45.7581 39.9014C45.7581 32.296 45.7581 24.6891 45.7581 17.0232C47.3508 17.0232 48.9538 17.0232 50.6319 17.0232C50.6319 19.6045 50.6319 22.1917 50.6319 24.8909C51.1461 24.496 51.5277 24.1174 51.9786 23.8684C55.133 22.1269 60.7553 22.8547 61.3417 28.5537C61.7248 32.2827 61.4139 36.084 61.4139 39.8955C59.8345 39.8955 58.2506 39.8955 56.5607 39.8955C56.5607 39.6377 56.5607 39.3784 56.5607 39.1206C56.5607 36.302 56.5725 33.4835 56.5563 30.6635C56.5445 28.4122 54.9636 27.1864 52.7904 27.7109C51.4968 28.0233 50.6982 29.0634 50.6791 30.6193C50.6452 33.4378 50.6629 36.2564 50.6599 39.0749C50.6584 39.3401 50.6599 39.6023 50.6599 39.9014Z" fill="white"/>
<path d="M70.2583 28.2648C70.2583 30.3348 70.248 32.2929 70.2642 34.251C70.2701 34.9229 70.6974 35.2838 71.3221 35.3664C72.0469 35.4636 72.7822 35.4945 73.5689 35.5594C73.5689 36.9767 73.5689 38.4088 73.5689 39.9087C71.6639 40.168 69.7662 40.2387 67.9392 39.5094C66.2567 38.8376 65.5937 37.3819 65.4375 35.7288C65.2813 34.0742 65.3226 32.402 65.2887 30.7356C65.2725 29.9532 65.2857 29.1709 65.2857 28.278C64.4076 28.278 63.5693 28.278 62.6926 28.278C62.6926 26.6574 62.6926 25.1472 62.6926 23.5559C63.531 23.5559 64.3546 23.5559 65.2504 23.5559C65.2504 21.7953 65.2504 20.1142 65.2504 18.3609C66.8991 17.8659 68.5021 17.3855 70.2156 16.8713C70.2156 19.1212 70.2156 21.2619 70.2156 23.5132C71.3825 23.5132 72.4669 23.5132 73.6205 23.5132C73.6205 25.0426 73.6352 26.4599 73.5969 27.8743C73.5925 28.0084 73.2551 28.2368 73.0636 28.2456C72.1604 28.2869 71.2558 28.2648 70.2583 28.2648Z" fill="white"/>
<path d="M85.7198 28.6038C84.8181 28.7585 83.9533 28.8086 83.1532 29.065C81.6578 29.5438 80.8902 30.6473 80.8784 32.2238C80.8592 34.5046 80.8666 36.7853 80.8636 39.0646C80.8636 39.3283 80.8636 39.5921 80.8636 39.8971C79.187 39.8971 77.5825 39.8971 75.9412 39.8971C75.9412 34.4471 75.9412 29.0384 75.9412 23.5767C77.5663 23.5767 79.1722 23.5767 80.8489 23.5767C80.8489 24.3782 80.8489 25.1488 80.8489 25.9208C81.9495 24.0438 83.6114 23.2865 85.7213 23.1877C85.7198 25.0442 85.7198 26.8476 85.7198 28.6038Z" fill="white"/>
<path d="M20.7992 39.6082C20.1186 39.6082 19.5395 39.6082 18.9089 39.6082C18.9089 34.3468 18.9089 29.0943 18.9089 23.7932C20.4353 23.7932 21.9647 23.7932 23.5338 23.7932C23.5338 29.0634 23.5338 34.3159 23.5338 39.6052C22.9238 39.6052 22.3433 39.6052 21.6862 39.6052C21.6862 37.1462 21.6862 34.6872 21.6862 32.181C21.3562 32.181 21.1028 32.181 20.7992 32.181C20.7992 34.6371 20.7992 37.0799 20.7992 39.6082Z" fill="white"/>
<path d="M87.8442 39.5876C87.8442 34.2983 87.8442 29.062 87.8442 23.7859C89.3868 23.7859 90.8985 23.7859 92.4691 23.7859C92.4691 29.0266 92.4691 34.2806 92.4691 39.5876C90.9604 39.5876 89.431 39.5876 87.8442 39.5876ZM89.7596 38.8775C89.7596 36.5908 89.7596 34.3749 89.7596 32.1722C90.0734 32.1722 90.3092 32.1722 90.6215 32.1722C90.6215 34.4235 90.6215 36.6394 90.6215 38.8539C91.0503 38.8539 91.4009 38.8539 91.7339 38.8539C91.7339 34.039 91.7339 29.2771 91.7339 24.5211C90.6569 24.5211 89.6358 24.5211 88.5898 24.5211C88.5898 29.3228 88.5898 34.0861 88.5898 38.8775C88.9655 38.8775 89.2999 38.8775 89.7596 38.8775Z" fill="white"/>
<path d="M21.2236 21.9117C19.5513 21.9029 18.1914 20.5386 18.1929 18.8693C18.1943 17.2014 19.5557 15.8283 21.2191 15.8165C22.9047 15.8047 24.3147 17.2191 24.294 18.9017C24.2719 20.5666 22.8914 21.9206 21.2236 21.9117Z" fill="white"/>
<path d="M90.1855 21.9118C88.5148 21.9104 87.1504 20.549 87.1445 18.8782C87.1401 17.2118 88.4971 15.8343 90.162 15.8166C91.8475 15.7989 93.2604 17.2089 93.2457 18.8929C93.231 20.5564 91.8549 21.9133 90.1855 21.9118ZM90.2106 20.9659C91.3863 20.9571 92.3042 20.0259 92.2939 18.8502C92.2836 17.6759 91.348 16.7595 90.1723 16.7698C88.9966 16.7801 88.0845 17.7084 88.0934 18.887C88.1007 20.0584 89.0334 20.9748 90.2106 20.9659Z" fill="white"/>
<path d="M67.739 6.51963C67.5975 6.36493 67.4546 6.21023 67.2852 6.02458C68.2458 5.23339 69.2477 5.16267 70.3674 5.56048C70.2923 5.78737 70.2319 5.96712 70.2127 6.02311C69.3375 6.12919 68.5463 6.22496 67.7537 6.32073C67.7493 6.38703 67.7448 6.45333 67.739 6.51963Z" fill="white"/>
<path d="M57.8955 11.7293C57.5051 11.9562 57.343 12.0505 57.2414 12.1095C56.5327 11.5113 55.8667 10.9499 55.1433 10.3414C55.1964 10.2412 55.2906 10.0585 55.4851 9.68726C56.2984 10.3768 57.041 11.0059 57.8955 11.7293Z" fill="white"/>
<path d="M23.7786 10.9441C23.5782 10.8321 23.3926 10.7305 23.1421 10.5905C23.6592 9.75362 24.1558 8.95506 24.6773 8.1123C24.8969 8.24196 25.0766 8.34657 25.3035 8.48064C24.7864 9.31456 24.2928 10.1131 23.7786 10.9441Z" fill="white"/>
<path d="M52.6782 14.9692C52.8683 14.8881 53.0598 14.8071 53.2499 14.7261C53.2219 14.8012 53.1939 14.8764 53.1659 14.9515C53.77 15.3081 54.3873 15.644 54.9693 16.0329C55.1372 16.1449 55.2094 16.4028 55.3524 16.6414C54.181 16.8286 53.1615 16.1552 52.6782 14.9692Z" fill="white"/>
<path d="M56.7668 7.44629C56.8965 7.82052 56.9583 8.00174 57.0114 8.15497C56.2231 8.62939 55.4585 9.08908 54.5848 9.61507C54.5199 9.51341 54.4035 9.33366 54.1973 9.01541C55.015 8.51594 55.8459 8.00911 56.7668 7.44629Z" fill="white"/>
<path d="M69.4406 9.14218C69.4053 9.24826 69.3463 9.42506 69.2948 9.57534C68.6553 9.76099 67.2394 8.7208 66.8284 7.7808C67.017 7.69976 67.2055 7.61726 67.2335 7.60547C68.0071 8.14472 68.6745 8.60882 69.4406 9.14218Z" fill="white"/>
<path d="M82.8733 9.4928C83.0029 9.32042 83.1164 9.16866 83.2696 8.96387C83.9724 9.65782 84.6443 10.3194 85.4428 11.1061C85.2174 11.2594 85.0288 11.389 84.8122 11.5363C84.1743 10.863 83.551 10.2074 82.8733 9.4928Z" fill="white"/>
<path d="M47.3183 12.4941C47.1946 12.3203 47.0738 12.1523 46.8984 11.9063C47.7397 11.3803 48.5339 10.8823 49.3972 10.3416C49.5372 10.595 49.6433 10.7909 49.7523 10.9884C48.9228 11.5011 48.1419 11.9843 47.3183 12.4941Z" fill="white"/>
<path d="M52.2952 13.2484C52.5559 12.3143 52.8167 11.3817 53.104 10.3547C53.4414 10.5477 53.6197 10.6494 53.7376 10.7187C53.5298 11.529 53.3648 12.2848 53.1247 13.0171C53.0628 13.2042 52.7622 13.3132 52.5707 13.4576C52.4793 13.3869 52.3865 13.3177 52.2952 13.2484Z" fill="white"/>
<path d="M77.4381 6.9248C77.5295 7.34471 77.5707 7.52888 77.6031 7.68358C76.7928 8.06371 76.009 8.43205 75.1279 8.84606C75.0749 8.79744 74.9231 8.65894 74.5813 8.34954C75.5743 7.85449 76.4436 7.41985 77.4381 6.9248Z" fill="white"/>
<path d="M62.3289 8.91081C62.4629 8.73695 62.5793 8.5852 62.7723 8.33325C63.4103 8.94469 64.0468 9.50457 64.6111 10.1307C64.7422 10.2766 64.6302 10.642 64.6302 11.0914C63.7801 10.284 63.0817 9.62391 62.3289 8.91081Z" fill="white"/>
<path d="M70.867 9.46187C71.8143 9.40588 72.66 9.35726 73.6059 9.30127C73.6443 9.38083 73.7341 9.565 73.9271 9.96428C72.8369 10.0527 71.8703 10.1308 70.8184 10.2147C70.8419 9.84052 70.8552 9.63719 70.867 9.46187Z" fill="white"/>
<path d="M50.9043 9.6386C51.8679 9.48832 52.827 9.33951 53.8186 9.18628C53.8878 9.76825 53.8451 10.0187 53.3014 10.0276C52.7268 10.0379 52.139 10.141 51.585 10.3001C51.0575 10.4504 50.9441 10.2294 50.9043 9.6386Z" fill="white"/>
<path d="M36.6925 9.39561C37.1684 9.29248 37.3614 9.38677 37.4115 9.87445C37.4822 10.5596 37.6855 11.2329 37.8594 12.03C37.8373 12.0477 37.6723 12.1773 37.4675 12.3364C36.7455 11.4568 36.5908 10.4874 36.6925 9.39561Z" fill="white"/>
<path d="M79.0042 7.73209C79.0395 7.55528 79.0763 7.36669 79.1426 7.0293C80.093 7.36227 81.0006 7.68199 81.9744 8.02381C81.8374 8.31701 81.752 8.50412 81.665 8.68977C80.7781 8.37005 79.9353 8.06654 79.0042 7.73209Z" fill="white"/>
<path d="M41.4513 14.3195C40.4788 14.125 39.5241 13.9335 38.5208 13.7331C38.6917 13.104 38.9023 12.9758 39.393 13.1511C39.8895 13.3294 40.4332 13.4163 40.9636 13.4546C41.4277 13.4885 41.6634 13.6093 41.4513 14.3195Z" fill="white"/>
<path d="M22.4186 11.9238C22.6868 12.0638 22.8547 12.1522 23.0625 12.2612C22.7118 13.132 22.3685 13.9792 21.9972 14.8985C21.791 14.8352 21.5803 14.7703 21.2944 14.6834C21.676 13.7449 22.0311 12.8727 22.4186 11.9238Z" fill="white"/>
<path d="M61.3666 7.38437C61.2458 8.03117 61.1264 8.22271 60.6314 8.0798C60.0803 7.92067 59.4792 7.88089 58.9017 7.88679C58.4037 7.89121 58.2961 7.70409 58.4331 7.07202C59.379 7.17221 60.3397 7.27534 61.3666 7.38437Z" fill="white"/>
<path d="M57.7819 13.4561C57.7937 13.4561 57.9793 13.4561 58.1989 13.4561C58.3477 14.6657 57.7731 15.4716 56.864 16.2039C56.7049 15.9829 56.5841 15.8164 56.5693 15.7957C56.9848 14.9928 57.3428 14.3018 57.7819 13.4561Z" fill="white"/>
<path d="M45.705 12.7312C45.7816 12.8947 45.867 13.0789 46.0085 13.3809C45.0228 13.655 44.102 13.9099 43.1826 14.1648C43.1148 14.0985 43.0456 14.0322 42.9778 13.9659C43.0957 13.7567 43.1723 13.4163 43.3402 13.3603C44.0961 13.1099 44.8769 12.9419 45.705 12.7312Z" fill="white"/>
<path d="M36.8162 7.76015C36.9075 6.93801 36.9738 6.11294 37.1123 5.29964C37.1388 5.14347 37.4526 5.03444 37.6339 4.90479C37.7061 4.95635 37.7783 5.00792 37.8505 5.05949C37.7517 5.91993 37.6766 6.78479 37.5307 7.63638C37.5086 7.76751 37.1683 7.8456 36.9738 7.94726C36.9222 7.88538 36.8692 7.8235 36.8162 7.76015Z" fill="white"/>
<path d="M70.5839 9.69607C70.2524 9.40877 70.1109 9.28648 70.0093 9.19808C70.3982 8.34501 70.7695 7.53466 71.1541 6.69043C71.2955 6.72284 71.4812 6.7641 71.8569 6.84955C71.4355 7.7925 71.0392 8.67651 70.5839 9.69607Z" fill="white"/>
<path d="M26.1696 7.29762C25.9633 7.14292 25.8101 7.02653 25.5906 6.86299C26.1888 6.10715 26.7707 5.37048 27.3895 4.5896C27.5899 4.72662 27.7579 4.84154 27.9877 4.99772C27.3792 5.76534 26.7973 6.50201 26.1696 7.29762Z" fill="white"/>
<path d="M37.731 3.40488C37.4776 3.46381 37.292 3.50801 37.2375 3.5198C36.7542 2.80964 36.2872 2.17315 35.8864 1.49836C35.7951 1.34513 35.9291 1.05635 35.9733 0.726318C37.0666 1.39227 37.4747 2.29691 37.731 3.40488Z" fill="white"/>
<path d="M34.584 0C34.5015 0.480313 34.4691 0.668903 34.4529 0.763197C33.5674 0.94442 32.7393 1.11386 31.8214 1.30097C31.7699 1.21994 31.6564 1.04608 31.4133 0.668903C32.4962 0.440533 33.4613 0.23721 34.584 0Z" fill="white"/>
<path d="M88.3157 14.3961C88.1006 14.5699 87.9518 14.6907 87.7529 14.8513C87.1252 14.1368 86.5167 13.4443 85.8198 12.6516C85.9804 12.4748 86.1307 12.3098 86.3193 12.1021C87.0442 12.9345 87.6527 13.6343 88.3157 14.3961Z" fill="white"/>
<path d="M65.9443 10.5904C67.0862 10.3842 67.9186 10.2339 68.8645 10.063C68.9205 10.1602 69.0325 10.3532 69.2461 10.7231C68.2634 10.891 67.4147 11.0619 66.5587 11.1547C66.4099 11.1724 66.2243 10.8571 65.9443 10.5904Z" fill="white"/>
<path d="M30.167 1.58081C30.363 1.82686 30.4941 1.9904 30.6812 2.22467C30.0786 2.75802 29.4981 3.27369 28.8808 3.82031C28.7939 3.74517 28.6392 3.60815 28.4255 3.42103C28.9987 2.81548 29.5423 2.24087 30.167 1.58081Z" fill="white"/>
</g>
<defs>
<clipPath id="clip0_5701_44087">
<rect width="130.981" height="47" fill="white"/>
</clipPath>
</defs>
</svg>
