<svg width="131" height="47" viewBox="0 0 131 47" fill="none" xmlns="http://www.w3.org/2000/svg">
<g clip-path="url(#clip0_673_245237)">
<path d="M33.1505 46.9997C32.4094 46.8523 31.655 46.7463 30.9272 46.5474C28.9485 46.0052 27.4147 44.8677 26.3686 42.9804C27.7609 42.1744 29.1297 41.3832 30.4881 40.5979C32.3607 42.5811 34.2525 43.1277 36.1841 42.2702C37.653 41.6175 38.1937 40.2871 37.9727 37.8634C37.9285 37.8605 37.8652 37.8384 37.8446 37.859C35.7598 39.9556 33.2403 40.1721 30.6148 39.3132C27.758 38.3791 25.9885 36.2928 25.3667 33.3741C24.7391 30.4259 25.3741 27.765 27.4736 25.4695C29.9665 22.7453 35.1336 21.9968 37.9772 25.0555C37.9772 24.531 37.9772 24.0861 37.9772 23.5822C39.6096 23.5822 41.164 23.5822 42.8009 23.5822C42.8142 23.84 42.8363 24.0979 42.8378 24.3557C42.8392 29.1868 42.8451 34.0165 42.8378 38.8476C42.8319 43.4342 40.2167 46.3352 35.6301 46.8656C35.4386 46.8877 35.2515 46.9525 35.0629 46.9967C34.4279 46.9997 33.7884 46.9997 33.1505 46.9997ZM38.0169 31.4027C38.0169 29.1544 36.3963 27.5956 34.0536 27.5926C31.739 27.5912 30.0756 29.1824 30.0756 31.4013C30.0756 33.6246 31.7316 35.2114 34.0536 35.2099C36.3918 35.2099 38.0155 33.6496 38.0169 31.4027Z" fill="black"/>
<path d="M1.70206e-05 16.9775C1.63691 16.9775 3.27381 16.9775 4.99027 16.9775C4.99027 19.6325 4.99027 22.2138 4.99027 24.9381C6.83343 23.064 8.97716 22.7546 11.2638 23.2688C13.739 23.8257 15.6131 25.9724 15.7163 28.6716C15.8592 32.3903 15.7516 36.1179 15.7516 39.8926C14.1752 39.8926 12.5913 39.8926 10.8852 39.8926C10.8852 39.6554 10.8852 39.4005 10.8852 39.1442C10.8852 36.2991 10.9014 33.4555 10.8793 30.6105C10.8631 28.4358 9.31751 27.2321 7.2003 27.6991C5.84334 27.9982 5.02415 29.0252 5.00353 30.6105C4.96817 33.4305 4.98732 36.2505 4.9829 39.0705C4.9829 39.3342 4.9829 39.5979 4.9829 39.9383C3.27086 39.9383 1.63397 39.9383 -0.00292969 39.9383C1.70206e-05 32.2827 1.70206e-05 24.6301 1.70206e-05 16.9775Z" fill="black"/>
<path d="M130.981 32.4304C130.598 33.7225 130.598 33.7225 129.178 33.7225C126.135 33.7225 123.093 33.7225 120.052 33.7225C119.784 33.7225 119.517 33.7225 119.128 33.7225C119.446 34.7008 120.043 35.3181 120.896 35.6128C122.764 36.2581 124.56 36.1977 126.199 34.7656C127.463 35.4905 128.749 36.2287 130.104 37.0051C129.017 38.5757 127.582 39.5643 125.805 40.0343C123.722 40.5869 121.624 40.5515 119.564 39.8959C116.237 38.8365 114.023 35.878 113.871 32.3611C113.696 28.2917 115.639 24.9649 119.118 23.689C125.556 21.3272 130.392 25.6986 130.854 30.4634C130.871 30.6299 130.937 30.792 130.981 30.9555C130.981 31.4491 130.981 31.9397 130.981 32.4304ZM125.936 30.0111C125.595 28.2343 124.123 27.2751 122.106 27.446C120.432 27.5875 119.134 28.6984 119.131 30.0111C121.381 30.0111 123.632 30.0111 125.936 30.0111Z" fill="black"/>
<path d="M100.045 38.5344C100.022 39.05 100.004 39.4582 99.9848 39.8987C98.3376 39.8987 96.7331 39.8987 95.0933 39.8987C95.0933 32.2682 95.0933 24.6804 95.0933 17.0293C96.7007 17.0293 98.3037 17.0293 100.001 17.0293C100.001 19.6136 100.001 22.2155 100.001 24.981C101.952 23.1246 104.157 22.74 106.522 23.2542C109.844 23.9747 112.46 27.194 112.707 30.7256C112.866 32.9872 112.489 35.1059 111.173 37.0183C108.292 41.21 102.761 41.2778 100.045 38.5344ZM100.019 31.7496C100.025 34.1526 101.536 35.7026 103.886 35.7158C106.223 35.7276 107.832 34.0907 107.822 31.7127C107.811 29.3745 106.205 27.7362 103.92 27.7303C101.563 27.7244 100.013 29.3215 100.019 31.7496Z" fill="black"/>
<path d="M50.6599 39.9017C48.9921 39.9017 47.4053 39.9017 45.7581 39.9017C45.7581 32.2962 45.7581 24.6893 45.7581 17.0234C47.3508 17.0234 48.9538 17.0234 50.6319 17.0234C50.6319 19.6048 50.6319 22.192 50.6319 24.8911C51.1461 24.4963 51.5277 24.1176 51.9786 23.8686C55.133 22.1271 60.7553 22.855 61.3417 28.5539C61.7248 32.283 61.4139 36.0842 61.4139 39.8958C59.8345 39.8958 58.2506 39.8958 56.5607 39.8958C56.5607 39.638 56.5607 39.3786 56.5607 39.1208C56.5607 36.3023 56.5725 33.4837 56.5563 30.6638C56.5445 28.4125 54.9636 27.1866 52.7904 27.7111C51.4968 28.0235 50.6982 29.0637 50.6791 30.6196C50.6452 33.4381 50.6629 36.2566 50.6599 39.0751C50.6584 39.3403 50.6599 39.6026 50.6599 39.9017Z" fill="black"/>
<path d="M70.2583 28.2645C70.2583 30.3346 70.248 32.2927 70.2642 34.2508C70.2701 34.9226 70.6974 35.2836 71.3221 35.3661C72.0469 35.4634 72.7822 35.4943 73.5689 35.5591C73.5689 36.9765 73.5689 38.4086 73.5689 39.9085C71.6639 40.1678 69.7662 40.2385 67.9392 39.5092C66.2567 38.8373 65.5937 37.3817 65.4375 35.7286C65.2813 34.074 65.3226 32.4017 65.2887 30.7354C65.2725 29.953 65.2857 29.1707 65.2857 28.2778C64.4076 28.2778 63.5693 28.2778 62.6926 28.2778C62.6926 26.6571 62.6926 25.1469 62.6926 23.5557C63.531 23.5557 64.3546 23.5557 65.2504 23.5557C65.2504 21.795 65.2504 20.1139 65.2504 18.3607C66.8991 17.8656 68.5021 17.3853 70.2156 16.8711C70.2156 19.1209 70.2156 21.2617 70.2156 23.513C71.3825 23.513 72.4669 23.513 73.6205 23.513C73.6205 25.0423 73.6352 26.4597 73.5969 27.8741C73.5925 28.0082 73.2551 28.2365 73.0636 28.2454C72.1604 28.2866 71.2558 28.2645 70.2583 28.2645Z" fill="black"/>
<path d="M85.7198 28.6035C84.8181 28.7583 83.9533 28.8083 83.1532 29.0647C81.6578 29.5436 80.8902 30.6471 80.8784 32.2236C80.8592 34.5043 80.8666 36.7851 80.8636 39.0644C80.8636 39.3281 80.8636 39.5918 80.8636 39.8968C79.187 39.8968 77.5825 39.8968 75.9412 39.8968C75.9412 34.4469 75.9412 29.0382 75.9412 23.5765C77.5663 23.5765 79.1722 23.5765 80.8489 23.5765C80.8489 24.378 80.8489 25.1485 80.8489 25.9206C81.9495 24.0435 83.6114 23.2862 85.7213 23.1875C85.7198 25.0439 85.7198 26.8473 85.7198 28.6035Z" fill="black"/>
<path d="M20.7992 39.608C20.1186 39.608 19.5395 39.608 18.9089 39.608C18.9089 34.3466 18.9089 29.0941 18.9089 23.793C20.4353 23.793 21.9647 23.793 23.5338 23.793C23.5338 29.0632 23.5338 34.3157 23.5338 39.605C22.9238 39.605 22.3433 39.605 21.6862 39.605C21.6862 37.146 21.6862 34.6869 21.6862 32.1808C21.3562 32.1808 21.1028 32.1808 20.7992 32.1808C20.7992 34.6369 20.7992 37.0797 20.7992 39.608Z" fill="black"/>
<path d="M87.8442 39.5879C87.8442 34.2985 87.8442 29.0622 87.8442 23.7861C89.3868 23.7861 90.8985 23.7861 92.4691 23.7861C92.4691 29.0269 92.4691 34.2808 92.4691 39.5879C90.9604 39.5879 89.431 39.5879 87.8442 39.5879ZM89.7596 38.8777C89.7596 36.5911 89.7596 34.3751 89.7596 32.1725C90.0734 32.1725 90.3092 32.1725 90.6215 32.1725C90.6215 34.4237 90.6215 36.6397 90.6215 38.8541C91.0503 38.8541 91.4009 38.8541 91.7339 38.8541C91.7339 34.0392 91.7339 29.2773 91.7339 24.5213C90.6569 24.5213 89.6358 24.5213 88.5898 24.5213C88.5898 29.323 88.5898 34.0864 88.5898 38.8777C88.9655 38.8777 89.2999 38.8777 89.7596 38.8777Z" fill="black"/>
<path d="M21.2236 21.9117C19.5513 21.9029 18.1914 20.5386 18.1929 18.8693C18.1943 17.2014 19.5557 15.8283 21.2191 15.8165C22.9047 15.8047 24.3147 17.2191 24.294 18.9017C24.2719 20.5666 22.8914 21.9206 21.2236 21.9117Z" fill="black"/>
<path d="M90.1855 21.9118C88.5148 21.9104 87.1504 20.549 87.1445 18.8782C87.1401 17.2118 88.4971 15.8343 90.162 15.8166C91.8475 15.7989 93.2604 17.2089 93.2457 18.8929C93.231 20.5564 91.8549 21.9133 90.1855 21.9118ZM90.2106 20.9659C91.3863 20.9571 92.3042 20.0259 92.2939 18.8502C92.2836 17.6759 91.348 16.7595 90.1723 16.7698C88.9966 16.7801 88.0845 17.7084 88.0934 18.887C88.1007 20.0584 89.0334 20.9748 90.2106 20.9659Z" fill="black"/>
<path d="M67.739 6.51914C67.5975 6.36444 67.4546 6.20974 67.2852 6.02409C68.2458 5.2329 69.2477 5.16218 70.3674 5.55999C70.2923 5.78688 70.2319 5.96663 70.2127 6.02262C69.3375 6.1287 68.5463 6.22447 67.7537 6.32024C67.7493 6.38654 67.7448 6.45284 67.739 6.51914Z" fill="black"/>
<path d="M57.8955 11.7296C57.5051 11.9565 57.343 12.0508 57.2414 12.1097C56.5327 11.5115 55.8667 10.9502 55.1433 10.3417C55.1964 10.2415 55.2906 10.0588 55.4851 9.6875C56.2984 10.377 57.041 11.0062 57.8955 11.7296Z" fill="black"/>
<path d="M23.7786 10.9441C23.5782 10.8321 23.3926 10.7305 23.1421 10.5905C23.6592 9.75362 24.1558 8.95506 24.6773 8.1123C24.8969 8.24196 25.0766 8.34657 25.3035 8.48064C24.7864 9.31456 24.2928 10.1131 23.7786 10.9441Z" fill="black"/>
<path d="M52.6782 14.9697C52.8683 14.8886 53.0598 14.8076 53.2499 14.7266C53.2219 14.8017 53.1939 14.8768 53.1659 14.952C53.77 15.3085 54.3873 15.6445 54.9693 16.0334C55.1372 16.1454 55.2094 16.4032 55.3524 16.6419C54.181 16.829 53.1615 16.1557 52.6782 14.9697Z" fill="black"/>
<path d="M56.7668 7.44629C56.8965 7.82052 56.9583 8.00174 57.0114 8.15497C56.2231 8.62939 55.4585 9.08908 54.5848 9.61507C54.5199 9.51341 54.4035 9.33366 54.1973 9.01541C55.015 8.51594 55.8459 8.00911 56.7668 7.44629Z" fill="black"/>
<path d="M69.4406 9.14218C69.4053 9.24826 69.3463 9.42506 69.2948 9.57534C68.6553 9.76099 67.2394 8.7208 66.8284 7.7808C67.017 7.69976 67.2055 7.61726 67.2335 7.60547C68.0071 8.14472 68.6745 8.60882 69.4406 9.14218Z" fill="black"/>
<path d="M82.8733 9.4928C83.0029 9.32042 83.1164 9.16866 83.2696 8.96387C83.9724 9.65782 84.6443 10.3194 85.4428 11.1061C85.2174 11.2594 85.0288 11.389 84.8122 11.5363C84.1743 10.863 83.551 10.2074 82.8733 9.4928Z" fill="black"/>
<path d="M47.3183 12.4944C47.1946 12.3205 47.0738 12.1525 46.8984 11.9065C47.7397 11.3805 48.5339 10.8825 49.3972 10.3418C49.5372 10.5952 49.6433 10.7912 49.7523 10.9886C48.9228 11.5013 48.1419 11.9846 47.3183 12.4944Z" fill="black"/>
<path d="M52.2952 13.2482C52.5559 12.3141 52.8167 11.3814 53.104 10.3545C53.4414 10.5475 53.6197 10.6492 53.7376 10.7184C53.5298 11.5288 53.3648 12.2846 53.1247 13.0168C53.0628 13.204 52.7622 13.313 52.5707 13.4574C52.4793 13.3867 52.3865 13.3174 52.2952 13.2482Z" fill="black"/>
<path d="M77.4381 6.9248C77.5295 7.34471 77.5707 7.52888 77.6031 7.68358C76.7928 8.06371 76.009 8.43205 75.1279 8.84606C75.0749 8.79744 74.9231 8.65894 74.5813 8.34954C75.5743 7.85449 76.4436 7.41985 77.4381 6.9248Z" fill="black"/>
<path d="M62.3289 8.91056C62.4629 8.73671 62.5793 8.58495 62.7723 8.33301C63.4103 8.94445 64.0468 9.50432 64.6111 10.1305C64.7422 10.2764 64.6302 10.6418 64.6302 11.0911C63.7801 10.2837 63.0817 9.62367 62.3289 8.91056Z" fill="black"/>
<path d="M70.867 9.46235C71.8143 9.40637 72.66 9.35775 73.6059 9.30176C73.6443 9.38132 73.7341 9.56549 73.9271 9.96477C72.8369 10.0532 71.8703 10.1313 70.8184 10.2152C70.8419 9.84101 70.8552 9.63768 70.867 9.46235Z" fill="black"/>
<path d="M50.9043 9.63884C51.8679 9.48856 52.827 9.33975 53.8186 9.18652C53.8878 9.7685 53.8451 10.019 53.3014 10.0278C52.7268 10.0381 52.139 10.1413 51.585 10.3004C51.0575 10.4507 50.9441 10.2297 50.9043 9.63884Z" fill="black"/>
<path d="M36.6925 9.39586C37.1684 9.29272 37.3614 9.38702 37.4115 9.8747C37.4822 10.5598 37.6855 11.2331 37.8594 12.0302C37.8373 12.0479 37.6723 12.1776 37.4675 12.3367C36.7455 11.4571 36.5908 10.4876 36.6925 9.39586Z" fill="black"/>
<path d="M79.0042 7.73209C79.0395 7.55528 79.0763 7.36669 79.1426 7.0293C80.093 7.36227 81.0006 7.68199 81.9744 8.02381C81.8374 8.31701 81.752 8.50412 81.665 8.68977C80.7781 8.37005 79.9353 8.06654 79.0042 7.73209Z" fill="black"/>
<path d="M41.4513 14.3192C40.4788 14.1248 39.5241 13.9332 38.5208 13.7328C38.6917 13.1037 38.9023 12.9755 39.393 13.1509C39.8895 13.3291 40.4332 13.4161 40.9636 13.4544C41.4277 13.4883 41.6634 13.6091 41.4513 14.3192Z" fill="black"/>
<path d="M22.4186 11.9238C22.6868 12.0638 22.8547 12.1522 23.0625 12.2612C22.7118 13.132 22.3685 13.9792 21.9972 14.8985C21.791 14.8352 21.5803 14.7703 21.2944 14.6834C21.676 13.7449 22.0311 12.8727 22.4186 11.9238Z" fill="black"/>
<path d="M61.3666 7.38462C61.2458 8.03142 61.1264 8.22296 60.6314 8.08004C60.0803 7.92092 59.4792 7.88114 58.9017 7.88703C58.4037 7.89145 58.2961 7.70433 58.4331 7.07227C59.379 7.17245 60.3397 7.27559 61.3666 7.38462Z" fill="black"/>
<path d="M57.7819 13.4561C57.7937 13.4561 57.9793 13.4561 58.1989 13.4561C58.3477 14.6657 57.7731 15.4716 56.864 16.2039C56.7049 15.9829 56.5841 15.8164 56.5693 15.7957C56.9848 14.9928 57.3428 14.3018 57.7819 13.4561Z" fill="black"/>
<path d="M45.705 12.7314C45.7816 12.895 45.867 13.0792 46.0085 13.3812C45.0228 13.6552 44.102 13.9101 43.1826 14.165C43.1148 14.0987 43.0456 14.0324 42.9778 13.9661C43.0957 13.7569 43.1723 13.4166 43.3402 13.3606C44.0961 13.1101 44.8769 12.9421 45.705 12.7314Z" fill="black"/>
<path d="M36.8162 7.76063C36.9075 6.9385 36.9738 6.11342 37.1123 5.30013C37.1388 5.14396 37.4526 5.03493 37.6339 4.90527C37.7061 4.95684 37.7783 5.00841 37.8505 5.05998C37.7517 5.92041 37.6766 6.78527 37.5307 7.63687C37.5086 7.768 37.1683 7.84609 36.9738 7.94775C36.9222 7.88587 36.8692 7.82399 36.8162 7.76063Z" fill="black"/>
<path d="M70.5839 9.69607C70.2524 9.40877 70.1109 9.28648 70.0093 9.19808C70.3982 8.34501 70.7695 7.53466 71.1541 6.69043C71.2955 6.72284 71.4812 6.7641 71.8569 6.84955C71.4355 7.7925 71.0392 8.67651 70.5839 9.69607Z" fill="black"/>
<path d="M26.1696 7.29787C25.9633 7.14317 25.8101 7.02677 25.5906 6.86323C26.1888 6.1074 26.7707 5.37072 27.3895 4.58984C27.5899 4.72687 27.7579 4.84179 27.9877 4.99796C27.3792 5.76558 26.7973 6.50226 26.1696 7.29787Z" fill="black"/>
<path d="M37.731 3.40512C37.4776 3.46405 37.292 3.50826 37.2375 3.52004C36.7542 2.80989 36.2872 2.1734 35.8864 1.4986C35.7951 1.34537 35.9291 1.05659 35.9733 0.726562C37.0666 1.39252 37.4747 2.29716 37.731 3.40512Z" fill="black"/>
<path d="M34.584 0C34.5015 0.480313 34.4691 0.668903 34.4529 0.763197C33.5674 0.94442 32.7393 1.11386 31.8214 1.30097C31.7699 1.21994 31.6564 1.04608 31.4133 0.668903C32.4962 0.440533 33.4613 0.23721 34.584 0Z" fill="black"/>
<path d="M88.3157 14.3966C88.1006 14.5704 87.9518 14.6912 87.7529 14.8518C87.1252 14.1372 86.5167 13.4448 85.8198 12.6521C85.9804 12.4753 86.1307 12.3103 86.3193 12.1025C87.0442 12.935 87.6527 13.6348 88.3157 14.3966Z" fill="black"/>
<path d="M65.9443 10.5909C67.0862 10.3847 67.9186 10.2344 68.8645 10.0635C68.9205 10.1607 69.0325 10.3537 69.2461 10.7235C68.2634 10.8915 67.4147 11.0624 66.5587 11.1552C66.4099 11.1729 66.2243 10.8576 65.9443 10.5909Z" fill="black"/>
<path d="M30.167 1.58105C30.363 1.8271 30.4941 1.99065 30.6812 2.22491C30.0786 2.75826 29.4981 3.27394 28.8808 3.82055C28.7939 3.74541 28.6392 3.60839 28.4255 3.42127C28.9987 2.81573 29.5423 2.24112 30.167 1.58105Z" fill="black"/>
</g>
<defs>
<clipPath id="clip0_673_245237">
<rect width="130.981" height="47" fill="white"/>
</clipPath>
</defs>
</svg>
