<svg width="56" height="43" viewBox="0 0 56 43" fill="none" xmlns="http://www.w3.org/2000/svg">
<path d="M11.8764 7.81852V0.503832H15.4873V18.9221H11.8764V11.2917H5.02349V18.9221H1.3862V0.503832H5.02349V7.81852H11.8764ZM19.6528 4.18749C19.0905 4.18749 18.5985 3.98575 18.1768 3.58231C17.7726 3.16133 17.5706 2.67017 17.5706 2.10885C17.5706 1.54754 17.7726 1.05638 18.1768 0.635391C18.5985 0.214401 19.0905 0.00390625 19.6528 0.00390625C20.2326 0.00390625 20.7246 0.214401 21.1288 0.635391C21.5505 1.05638 21.7614 1.54754 21.7614 2.10885C21.7614 2.67017 21.5505 3.16133 21.1288 3.58231C20.7246 3.98575 20.2326 4.18749 19.6528 4.18749ZM21.366 18.9221H17.9659V5.76619H21.366V18.9221ZM33.7821 7.39753V5.76619H37.1031V18.2906C37.1031 20.3079 36.4265 21.8603 35.0736 22.9478C33.7381 24.0178 32.1216 24.5528 30.2239 24.5528C27.2367 24.5528 25.1545 23.4828 23.9772 21.3428L26.8765 19.6851C27.5266 20.913 28.6776 21.527 30.3293 21.527C31.4012 21.527 32.2446 21.2463 32.8596 20.685C33.4746 20.1237 33.7821 19.3255 33.7821 18.2906V16.8698C32.7805 18.2029 31.3748 18.8695 29.5649 18.8695C27.7023 18.8695 26.1385 18.2204 24.8733 16.9224C23.6258 15.5893 23.002 13.993 23.002 12.1337C23.002 10.2743 23.6346 8.68681 24.8997 7.37122C26.1648 6.05562 27.7199 5.39783 29.5649 5.39783C31.3748 5.39783 32.7805 6.06438 33.7821 7.39753ZM32.7278 14.7385C33.4307 14.0544 33.7821 13.1861 33.7821 12.1337C33.7821 11.0812 33.4307 10.2304 32.7278 9.58141C32.0425 8.8973 31.1639 8.55525 30.0921 8.55525C29.0378 8.55525 28.1504 8.8973 27.43 9.58141C26.7447 10.2304 26.4021 11.0812 26.4021 12.1337C26.4021 13.1861 26.7447 14.0544 27.43 14.7385C28.1329 15.4051 29.0202 15.7384 30.0921 15.7384C31.1639 15.7384 32.0425 15.4051 32.7278 14.7385ZM46.7227 5.39783C48.1814 5.39783 49.3675 5.8802 50.281 6.84498C51.2298 7.82727 51.7042 9.16042 51.7042 10.8444V18.9221H48.3042V11.2654C48.3042 10.4058 48.0669 9.73928 47.5925 9.26567C47.1358 8.79205 46.5032 8.55525 45.6948 8.55525C44.7987 8.55525 44.087 8.83592 43.5599 9.39723C43.0504 9.94102 42.7955 10.7479 42.7955 11.8179V18.9221H39.3954V0.503832H42.7955V7.23966C43.6039 6.01176 44.9131 5.39783 46.7227 5.39783ZM0.015625 24.1845H13.5896V27.6576H8.60807V42.6027H4.97078V27.6576H0.015625V24.1845ZM16.3983 29.4468V31.7096C16.697 30.8852 17.2065 30.2625 17.927 29.8415C18.6474 29.403 19.4733 29.1837 20.4046 29.1837V32.9726C19.3678 32.8323 18.4366 33.0428 17.6107 33.6041C16.8024 34.1479 16.3983 35.0513 16.3983 36.3142V42.6027H12.9982V29.4468H16.3983ZM23.2892 27.8681C22.7269 27.8681 22.235 27.6664 21.8132 27.2629C21.4091 26.842 21.207 26.3508 21.207 25.7895C21.207 25.2282 21.4091 24.737 21.8132 24.316C22.235 23.895 22.7269 23.6845 23.2892 23.6845C23.8691 23.6845 24.3611 23.895 24.7652 24.316C25.187 24.737 25.3978 25.2282 25.3978 25.7895C25.3978 26.3508 25.187 26.842 24.7652 27.2629C24.3611 27.6664 23.8691 27.8681 23.2892 27.8681ZM25.0025 42.6027H21.6024V29.4468H25.0025V42.6027ZM34.9937 29.0785C36.7684 29.0785 38.2794 29.7538 39.5272 31.1045C40.7924 32.4551 41.4249 34.0953 41.4249 36.0248C41.4249 37.9895 40.7924 39.6382 39.5272 40.9714C38.2971 42.3047 36.7861 42.9711 34.9937 42.9711C33.1487 42.9711 31.7254 42.331 30.7238 41.0503V42.6027H27.3237V24.1845H30.7238V30.9992C31.7254 29.7187 33.1487 29.0785 34.9937 29.0785ZM31.7517 38.7086C32.437 39.3927 33.3068 39.7348 34.3611 39.7348C35.4154 39.7348 36.2853 39.3927 36.9706 38.7086C37.6732 38.0068 38.0249 37.1122 38.0249 36.0248C38.0249 34.9372 37.6732 34.0514 36.9706 33.3673C36.2853 32.6656 35.4154 32.3148 34.3611 32.3148C33.3068 32.3148 32.437 32.6656 31.7517 33.3673C31.0665 34.0514 30.7238 34.9372 30.7238 36.0248C30.7238 37.1122 31.0665 38.0068 31.7517 38.7086ZM55.8416 37.4193H45.9049C46.3443 39.0683 47.5831 39.8926 49.6213 39.8926C50.9215 39.8926 51.9057 39.454 52.5733 38.577L55.3145 40.1557C54.0143 42.0325 52.0989 42.9711 49.5686 42.9711C47.3896 42.9711 45.6414 42.3133 44.3235 40.9977C43.0056 39.6821 42.3467 38.0245 42.3467 36.0248C42.3467 34.0602 42.997 32.4113 44.2972 31.0782C45.58 29.745 47.2492 29.0785 49.305 29.0785C51.2554 29.0785 52.8455 29.745 54.0757 31.0782C55.3408 32.4113 55.9734 34.0602 55.9734 36.0248C55.9734 36.3932 55.9293 36.8581 55.8416 37.4193ZM45.8522 34.7881H52.5733C52.3801 33.9286 51.9848 33.2708 51.3872 32.8147C50.8074 32.3587 50.1134 32.1306 49.305 32.1306C48.3912 32.1306 47.6358 32.3674 47.0383 32.8411C46.4407 33.2971 46.0454 33.9462 45.8522 34.7881Z" fill="black"/>
</svg>
