<svg width="34" height="34" viewBox="0 0 34 34" fill="none" xmlns="http://www.w3.org/2000/svg">
<circle cx="16.8308" cy="16.6578" r="16.5709" fill="url(#paint0_linear_3874_22699)"/>
<g clip-path="url(#clip0_3874_22699)">
<path d="M14.3497 16.6576C14.0782 16.6576 13.8588 16.4377 13.8588 16.1652V10.2155C13.8588 9.94386 14.0791 9.72307 14.3497 9.72307H23.2743C23.5458 9.72307 23.7652 9.94298 23.7652 10.2155V16.1652C23.7652 16.4368 23.5449 16.6576 23.2743 16.6576H22.2793C22.0057 16.6576 21.7839 16.8794 21.7839 17.1529V20.1249L22.6295 19.7746L19.6576 16.8027C19.5647 16.7098 19.4387 16.6576 19.3073 16.6576H14.3497ZM18.9571 17.5032L21.929 20.4751C22.2411 20.7872 22.7746 20.5662 22.7746 20.1249V17.1529L22.2793 17.6483H23.2743C24.0925 17.6483 24.7559 16.9835 24.7559 16.1652V10.2155C24.7559 9.39632 24.0934 8.73242 23.2743 8.73242H14.3497C13.5315 8.73242 12.8681 9.39719 12.8681 10.2155V16.1652C12.8681 16.9844 13.5306 17.6483 14.3497 17.6483H19.3073L18.9571 17.5032Z" fill="black"/>
<path fill-rule="evenodd" clip-rule="evenodd" d="M19.1238 21.6104H14.2557L14.5996 21.4653L11.6813 24.437C11.3749 24.7491 10.8868 24.5281 10.8868 24.0868L10.8676 21.6104H10.3604C9.55694 21.6104 8.90552 20.9457 8.90552 20.1275V14.1782C8.90552 13.3592 9.55607 12.6953 10.3604 12.6953H11.8238V13.6859H10.3604C10.0938 13.6859 9.87828 13.9058 9.87828 14.1782V20.1275C9.87828 20.3991 10.0946 20.6198 10.3604 20.6198H11.3374C11.606 20.6198 11.8775 20.8416 11.8775 21.1151L11.8776 22.8363L13.9118 20.7649C14.003 20.672 14.1267 20.6198 14.2557 20.6198H19.1238C19.3468 20.6198 19.534 20.466 19.5893 20.2562L20.298 21.0036C20.0334 21.3715 19.6063 21.6104 19.1238 21.6104Z" fill="white"/>
</g>
<defs>
<linearGradient id="paint0_linear_3874_22699" x1="0.259888" y1="16.6578" x2="33.4016" y2="16.6578" gradientUnits="userSpaceOnUse">
<stop offset="0.0262537" stop-color="#247BFE"/>
<stop offset="0.973097" stop-color="#9743AB"/>
</linearGradient>
<clipPath id="clip0_3874_22699">
<rect width="15.8504" height="15.8504" fill="white" transform="translate(8.90552 8.73242)"/>
</clipPath>
</defs>
</svg>
