<svg width="3" height="15" viewBox="0 0 3 15" fill="none" xmlns="http://www.w3.org/2000/svg">
<path d="M1.5 0.3125C0.706091 0.3125 0.0625 0.956091 0.0625 1.75C0.0625 2.54391 0.706091 3.1875 1.5 3.1875C2.29391 3.1875 2.9375 2.54391 2.9375 1.75C2.9375 0.956091 2.29391 0.3125 1.5 0.3125ZM1.5 6.0625C0.706091 6.0625 0.0625 6.70609 0.0625 7.5C0.0625 8.29391 0.706091 8.9375 1.5 8.9375C2.29391 8.9375 2.9375 8.29391 2.9375 7.5C2.9375 6.70609 2.29391 6.0625 1.5 6.0625ZM1.5 11.8125C0.706091 11.8125 0.0625 12.4561 0.0625 13.25C0.0625 14.0439 0.706091 14.6875 1.5 14.6875C2.29391 14.6875 2.9375 14.0439 2.9375 13.25C2.9375 12.4561 2.29391 11.8125 1.5 11.8125Z" fill="black"/>
</svg>
