<svg width="17" height="18" viewBox="0 0 17 18" fill="none" xmlns="http://www.w3.org/2000/svg">
<path d="M11.1863 0.349133L8.40849 1.86998V0.316406L11.1863 0.349133ZM16.8356 6.56249L16.3165 6.39886C13.6352 5.62537 11.105 4.40173 8.83405 2.78024L8.41784 2.467L7.99228 2.79894C5.71654 4.41369 3.18337 5.63092 0.500509 6.39886L0.00012207 6.56249V9.22362H1.2581L0.67354 17.1518H16.1341L15.6664 9.2283H16.8356V6.56249ZM1.40308 7.61909C3.89687 6.83986 6.26096 5.69438 8.41784 4.22021C10.5747 5.69438 12.9388 6.83986 15.4326 7.61909V7.82667H1.40308V7.61909ZM14.647 15.7493H11.4047C10.847 15.7481 10.3124 15.526 9.91804 15.1317C9.52365 14.7374 9.30154 14.203 9.3003 13.6454V10.139C9.3003 10.139 7.56204 14.4496 7.54334 14.4917C7.37769 14.8657 7.10703 15.1836 6.76419 15.4068C6.42135 15.63 6.02108 15.749 5.61194 15.7493H2.19808L2.66573 9.17453H14.2682L14.647 15.7493Z" fill="#25C35F"/>
</svg>
