<svg width="16" height="17" viewBox="0 0 16 17" fill="none" xmlns="http://www.w3.org/2000/svg">
<g clip-path="url(#clip0_1025_46947)">
<path fill-rule="evenodd" clip-rule="evenodd" d="M-0.332275 3.07895H1.21836V1.52832C0.365509 1.52832 -0.332275 2.22611 -0.332275 3.07895ZM-0.332275 9.28149H1.21836V7.73085H-0.332275V9.28149ZM2.76899 15.484H4.31962V13.9334H2.76899V15.484ZM-0.332275 6.18022H1.21836V4.62959H-0.332275V6.18022ZM7.42089 1.52832H5.87026V3.07895H7.42089V1.52832ZM12.0728 1.52832V3.07895H13.6234C13.6234 2.22611 12.9256 1.52832 12.0728 1.52832ZM1.21836 15.484V13.9334H-0.332275C-0.332275 14.7862 0.365509 15.484 1.21836 15.484ZM-0.332275 12.3828H1.21836V10.8321H-0.332275V12.3828ZM4.31962 1.52832H2.76899V3.07895H4.31962V1.52832ZM5.87026 15.484H7.42089V13.9334H5.87026V15.484ZM12.0728 9.28149H13.6234V7.73085H12.0728V9.28149ZM12.0728 15.484C12.9256 15.484 13.6234 14.7862 13.6234 13.9334H12.0728V15.484ZM12.0728 6.18022H13.6234V4.62959H12.0728V6.18022ZM12.0728 12.3828H13.6234V10.8321H12.0728V12.3828ZM8.97152 15.484H10.5222V13.9334H8.97152V15.484ZM8.97152 3.07895H10.5222V1.52832H8.97152V3.07895ZM2.76899 12.3828H10.5222V4.62959H2.76899V12.3828ZM4.31962 6.18022H8.97152V10.8321H4.31962V6.18022Z" fill="white"/>
</g>
<defs>
<clipPath id="clip0_1025_46947">
<rect width="15.9494" height="15.9494" fill="white" transform="translate(0 0.974609)"/>
</clipPath>
</defs>
</svg>
