<svg width="21" height="21" viewBox="0 0 21 21" fill="none" xmlns="http://www.w3.org/2000/svg">
<g clip-path="url(#clip0_396_11560)">
<path d="M13.2096 16.0528H10.8978V12.6881C11.5638 12.4844 12.0743 11.8518 12.0743 11.1036C12.0743 10.1912 11.33 9.45001 10.4183 9.45001C9.5067 9.45001 8.76504 10.1912 8.76504 11.1036C8.76504 11.8517 9.28046 12.4844 9.94644 12.6881V16.0528H7.62251C7.36145 16.0528 7.1499 16.2436 7.1499 16.5047C7.1499 16.7657 7.36145 16.9566 7.62251 16.9566H13.2096C13.4707 16.9566 13.6822 16.7657 13.6822 16.5047C13.6822 16.2436 13.4707 16.0528 13.2096 16.0528ZM9.70759 11.1037C9.70759 10.7125 10.0257 10.3944 10.416 10.3944C10.8064 10.3944 11.1245 10.7133 11.1245 11.1037C11.1245 11.4949 10.8064 11.813 10.416 11.813C10.0257 11.813 9.70759 11.494 9.70759 11.1037Z" fill="#FFB300"/>
<path d="M12.7294 18.0031H8.10261C7.84155 18.0031 7.63 18.2173 7.63 18.4784C7.63 18.7394 7.84155 18.9545 8.10261 18.9545H12.7294C12.9905 18.9545 13.202 18.7394 13.202 18.4784C13.202 18.2182 12.9905 18.0031 12.7294 18.0031Z" fill="#FFB300"/>
<path d="M12.4709 20.0486H8.36116C8.10009 20.0486 7.88855 20.2632 7.88855 20.5243C7.88855 20.7853 8.10009 21 8.36116 21H12.4709C12.7319 21 12.9435 20.7853 12.9435 20.5243C12.9435 20.2632 12.7319 20.0486 12.4709 20.0486Z" fill="#FFB300"/>
<path d="M10.416 4.30786C7.21613 4.30786 4.61316 6.91084 4.61316 10.1098C4.61316 12.471 6.0326 14.5033 8.06145 15.4081C8.77076 15.7431 9.27524 14.9431 8.61631 14.6182C6.82668 13.9014 5.55752 12.1521 5.55752 10.1098C5.55752 7.43211 7.7366 5.25217 10.4152 5.25217C13.0929 5.25217 15.2719 7.43211 15.2719 10.1098C15.2719 12.1454 14.0112 13.8905 12.2308 14.6115C11.5878 14.8692 11.9076 15.7791 12.7756 15.4048C14.8002 14.4982 16.2163 12.4685 16.2163 10.1098C16.218 6.91084 13.6149 4.30786 10.416 4.30786Z" fill="#FFB300"/>
<path d="M10.3746 3.38451C10.6524 3.38451 10.8979 3.15956 10.8979 2.8817V0.503683C10.8979 0.225828 10.6533 6.10352e-05 10.3746 6.10352e-05C10.0967 6.10352e-05 9.85132 0.225875 9.85132 0.503683V2.88084C9.85132 3.1587 10.0959 3.38451 10.3746 3.38451Z" fill="#FFB300"/>
<path d="M3.10149 9.86865H0.723471C0.445615 9.86865 0.219849 10.0903 0.219849 10.3681C0.219849 10.646 0.445663 10.8676 0.723471 10.8676H3.10149C3.38015 10.8676 3.60511 10.6468 3.60511 10.3681C3.60511 10.0903 3.3793 9.86865 3.10149 9.86865Z" fill="#FFB300"/>
<path d="M4.8105 5.26726C5.00691 5.46368 5.32587 5.46368 5.52233 5.26726C5.71961 5.07085 5.71961 4.75189 5.52233 4.55543L3.84098 2.87412C3.64456 2.6777 3.3256 2.6777 3.12914 2.87412C2.93268 3.07053 2.93273 3.38949 3.12914 3.58595L4.8105 5.26726Z" fill="#FFB300"/>
<path d="M20.2765 9.86865H17.8985C17.6199 9.86865 17.3949 10.0903 17.3949 10.3681C17.3949 10.6468 17.6199 10.8676 17.8985 10.8676H20.2765C20.5544 10.8676 20.7802 10.646 20.7802 10.3681C20.7802 10.0903 20.5544 9.86865 20.2765 9.86865Z" fill="#FFB300"/>
<path d="M16.1886 5.26726L17.8699 3.58595C18.0663 3.38954 18.0663 3.07053 17.8699 2.87412C17.6726 2.6777 17.3545 2.6777 17.158 2.87412L15.4768 4.55543C15.2804 4.75184 15.2804 5.0708 15.4768 5.26726C15.6732 5.46368 15.9922 5.46368 16.1886 5.26726Z" fill="#FFB300"/>
</g>
<defs>
<clipPath id="clip0_396_11560">
<rect width="21" height="21" fill="white"/>
</clipPath>
</defs>
</svg>
