<svg width="29" height="28" viewBox="0 0 29 28" fill="none" xmlns="http://www.w3.org/2000/svg">
<path d="M14.6055 2.56689C12.4054 2.56689 10.2546 3.21925 8.42519 4.44148C6.59581 5.6637 5.16997 7.4009 4.328 9.43338C3.48602 11.4659 3.26572 13.7024 3.69496 15.86C4.12419 18.0177 5.18368 19.9997 6.73945 21.5553C8.29522 23.1109 10.2774 24.1702 12.4353 24.5994C14.5932 25.0286 16.8299 24.8083 18.8626 23.9664C20.8954 23.1246 22.6327 21.6989 23.8551 19.8697C25.0775 18.0405 25.7299 15.89 25.7299 13.69C25.7299 10.74 24.5579 7.91077 22.4716 5.82478C20.3854 3.73879 17.5559 2.56689 14.6055 2.56689ZM14.6055 23.1019C12.7438 23.1019 10.924 22.5499 9.37602 21.5157C7.82807 20.4815 6.6216 19.0116 5.90916 17.2918C5.19672 15.572 5.01031 13.6796 5.37351 11.8539C5.73671 10.0281 6.6332 8.35109 7.94962 7.03482C9.26604 5.71854 10.9433 4.82215 12.7692 4.45899C14.5951 4.09583 16.4877 4.28222 18.2077 4.99458C19.9277 5.70694 21.3978 6.91329 22.4321 8.46106C23.4664 10.0088 24.0184 11.8285 24.0184 13.69C24.0184 16.1862 23.0267 18.5802 21.2615 20.3452C19.4962 22.1103 17.102 23.1019 14.6055 23.1019Z" fill="#FFB300"/>
<path d="M14.6056 17.9682C13.9311 17.9709 13.2628 17.8391 12.6398 17.5805C12.0168 17.322 11.4516 16.9418 10.9773 16.4623L9.76221 17.6773C10.398 18.3137 11.153 18.8186 11.9841 19.163C12.8151 19.5075 13.7059 19.6848 14.6056 19.6848C15.5052 19.6848 16.396 19.5075 17.2271 19.163C18.0581 18.8186 18.8132 18.3137 19.4489 17.6773L18.2338 16.4623C17.7595 16.9418 17.1943 17.322 16.5713 17.5805C15.9484 17.8391 15.2801 17.9709 14.6056 17.9682Z" fill="#FFB300"/>
<path d="M18.0285 13.6901C18.9737 13.6901 19.7399 12.9239 19.7399 11.9788C19.7399 11.0337 18.9737 10.2676 18.0285 10.2676C17.0833 10.2676 16.317 11.0337 16.317 11.9788C16.317 12.9239 17.0833 13.6901 18.0285 13.6901Z" fill="#FFB300"/>
<path d="M12.8941 11.1232H8.61548V12.8344H12.8941V11.1232Z" fill="#FFB300"/>
</svg>
