<svg width="26" height="21" viewBox="0 0 26 21" fill="none" xmlns="http://www.w3.org/2000/svg">
<g clip-path="url(#clip0_240_7112)">
<path d="M24.2067 0H7.02154C6.69598 0 6.38376 0.135162 6.15356 0.375751C5.92335 0.616341 5.79402 0.94265 5.79402 1.28289V5.13158H11.9316V2.56579H19.2967V15.3947H24.2067C24.5323 15.3947 24.8445 15.2596 25.0747 15.019C25.3049 14.7784 25.4342 14.4521 25.4342 14.1118V1.28289C25.4342 0.94265 25.3049 0.616341 25.0747 0.375751C24.8445 0.135162 24.5323 0 24.2067 0ZM9.78344 4.12932C9.78344 4.22501 9.74707 4.31679 9.68233 4.38445C9.61758 4.45212 9.52977 4.49013 9.4382 4.49013H8.28741C8.19585 4.49013 8.10804 4.45212 8.04329 4.38445C7.97855 4.31679 7.94217 4.22501 7.94217 4.12932V2.9266C7.94217 2.83091 7.97855 2.73914 8.04329 2.67147C8.10804 2.6038 8.19585 2.56579 8.28741 2.56579H9.4382C9.52977 2.56579 9.61758 2.6038 9.68233 2.67147C9.74707 2.73914 9.78344 2.83091 9.78344 2.9266V4.12932ZM23.2861 12.4681C23.2861 12.5638 23.2497 12.6556 23.185 12.7233C23.1202 12.7909 23.0324 12.8289 22.9408 12.8289H21.7901C21.6985 12.8289 21.6107 12.7909 21.5459 12.7233C21.4812 12.6556 21.4448 12.5638 21.4448 12.4681V11.2654C21.4448 11.1697 21.4812 11.078 21.5459 11.0103C21.6107 10.9426 21.6985 10.9046 21.7901 10.9046H22.9408C23.0324 10.9046 23.1202 10.9426 23.185 11.0103C23.2497 11.078 23.2861 11.1697 23.2861 11.2654V12.4681ZM23.2861 8.29873C23.2861 8.39442 23.2497 8.48619 23.185 8.55386C23.1202 8.62153 23.0324 8.65954 22.9408 8.65954H21.7901C21.6985 8.65954 21.6107 8.62153 21.5459 8.55386C21.4812 8.48619 21.4448 8.39442 21.4448 8.29873V7.09601C21.4448 7.00032 21.4812 6.90854 21.5459 6.84088C21.6107 6.77321 21.6985 6.7352 21.7901 6.7352H22.9408C23.0324 6.7352 23.1202 6.77321 23.185 6.84088C23.2497 6.90854 23.2861 7.00032 23.2861 7.09601V8.29873ZM23.2861 4.12932C23.2861 4.22501 23.2497 4.31679 23.185 4.38445C23.1202 4.45212 23.0324 4.49013 22.9408 4.49013H21.7901C21.6985 4.49013 21.6107 4.45212 21.5459 4.38445C21.4812 4.31679 21.4448 4.22501 21.4448 4.12932V2.9266C21.4448 2.83091 21.4812 2.73914 21.5459 2.67147C21.6107 2.6038 21.6985 2.56579 21.7901 2.56579H22.9408C23.0324 2.56579 23.1202 2.6038 23.185 2.67147C23.2497 2.73914 23.2861 2.83091 23.2861 2.9266V4.12932ZM16.8416 6.41447H2.11149C1.78593 6.41447 1.47371 6.54964 1.2435 6.79023C1.0133 7.03081 0.883972 7.35712 0.883972 7.69737L0.883972 19.2434C0.883972 19.5837 1.0133 19.91 1.2435 20.1506C1.47371 20.3912 1.78593 20.5263 2.11149 20.5263H16.8416C17.1672 20.5263 17.4794 20.3912 17.7096 20.1506C17.9398 19.91 18.0692 19.5837 18.0692 19.2434V7.69737C18.0692 7.35712 17.9398 7.03081 17.7096 6.79023C17.4794 6.54964 17.1672 6.41447 16.8416 6.41447ZM4.56651 8.98026C4.80929 8.98026 5.04662 9.0555 5.24848 9.19647C5.45035 9.33744 5.60768 9.5378 5.70059 9.77222C5.79349 10.0066 5.8178 10.2646 5.77044 10.5134C5.72307 10.7623 5.60617 10.9909 5.43449 11.1703C5.26282 11.3497 5.0441 11.4719 4.80599 11.5214C4.56787 11.5709 4.32106 11.5455 4.09676 11.4484C3.87246 11.3513 3.68075 11.1869 3.54587 10.9759C3.41099 10.7649 3.339 10.5169 3.339 10.2632C3.339 9.92291 3.46833 9.5966 3.69853 9.35601C3.92873 9.11543 4.24096 8.98026 4.56651 8.98026ZM15.6141 17.9605H3.339V16.6776L5.79402 14.1118L7.02154 15.3947L11.9316 10.2632L15.6141 14.1118V17.9605Z" fill="#45BD62"/>
</g>
<defs>
<clipPath id="clip0_240_7112">
<rect width="24.5503" height="20.5263" fill="white" transform="translate(0.883972)"/>
</clipPath>
</defs>
</svg>
