<svg width="16" height="16" viewBox="0 0 16 16" fill="none" xmlns="http://www.w3.org/2000/svg">
<g clip-path="url(#clip0_348_7891)">
<path d="M2.72593 15.363H13.3333C14.9333 15.363 15.8815 13.6427 15.1704 12.219L9.83704 2.25301C9.06667 0.769992 6.9926 0.769992 6.22223 2.25301L0.888893 12.219C0.17778 13.6427 1.12593 15.363 2.72593 15.363Z" stroke="#F02849" stroke-width="2" stroke-miterlimit="10" stroke-linecap="round"/>
<path d="M8.23707 10.6766H7.82225C7.40744 10.6766 7.4667 10.3207 7.4667 9.90543L7.05188 5.51567C7.05188 5.10042 7.40744 4.74451 7.82225 4.74451H8.23707C8.65188 4.74451 9.00744 5.10042 9.00744 5.51567L8.59262 9.90543C8.59262 10.3207 8.65188 10.6766 8.23707 10.6766Z" fill="#F02849"/>
<path d="M7.99996 12.9901C8.55635 12.9901 9.00737 12.6448 9.00737 12.219C9.00737 11.7931 8.55635 11.4478 7.99996 11.4478C7.44358 11.4478 6.99255 11.7931 6.99255 12.219C6.99255 12.6448 7.44358 12.9901 7.99996 12.9901Z" fill="#F02849"/>
</g>
<defs>
<clipPath id="clip0_348_7891">
<rect width="16" height="16" fill="white"/>
</clipPath>
</defs>
</svg>
