<svg width="25" height="26" viewBox="0 0 25 26" fill="none" xmlns="http://www.w3.org/2000/svg">
<path fill-rule="evenodd" clip-rule="evenodd" d="M22.1405 8.79804L23.5869 7.26621C23.9869 6.84262 23.9869 6.15687 23.5869 5.73437C23.1869 5.31079 22.5405 5.31079 22.1405 5.73437L20.6941 7.26621L19.2476 5.73437C18.8477 5.31079 18.2002 5.31079 17.8012 5.73437C17.4013 6.15687 17.4013 6.84262 17.8012 7.26621L19.2476 8.79804L17.8012 10.3299C17.4013 10.7535 17.4013 11.4392 17.8012 11.8617C18.0007 12.073 18.2626 12.1791 18.5244 12.1791C18.7863 12.1791 19.0482 12.073 19.2476 11.8617L20.6941 10.3299L22.1405 11.8617C22.34 12.073 22.6018 12.1791 22.8637 12.1791C23.1256 12.1791 23.3874 12.073 23.5869 11.8617C23.9869 11.4392 23.9869 10.7535 23.5869 10.3299L22.1405 8.79804ZM20.6941 13.673C20.1284 13.673 19.6711 14.1584 19.6711 14.7564V15.8397C19.6711 16.4388 20.1284 16.923 20.6941 16.923C21.2597 16.923 21.717 16.4388 21.717 15.8397V14.7564C21.717 14.1584 21.2597 13.673 20.6941 13.673ZM14.1903 19.054C13.7637 18.7701 13.3893 18.3866 13.1091 17.9403C12.796 17.442 12.1608 17.3076 11.6913 17.6402C11.2207 17.9728 11.0939 18.6445 11.4069 19.1428C11.8468 19.8405 12.4329 20.445 13.1039 20.8902C13.2727 21.0029 13.4599 21.0549 13.6461 21.0549C13.9867 21.0549 14.3192 20.875 14.5135 20.5479C14.8133 20.0409 14.669 19.3725 14.1903 19.054ZM18.4314 18.7095C18.0426 19.0659 17.5977 19.3226 17.1087 19.4754C16.5676 19.6465 16.2587 20.2478 16.4182 20.823C16.5502 21.2932 16.9583 21.5976 17.3992 21.5976C17.4954 21.5976 17.5936 21.5846 17.6897 21.5532C18.4579 21.3127 19.1576 20.9075 19.7683 20.3496C20.1959 19.9596 20.244 19.275 19.8737 18.8221C19.5054 18.3671 18.8569 18.3184 18.4314 18.7095ZM3.3043 11.2626C2.73964 11.2626 2.28137 11.748 2.28137 12.346V14.414C2.28137 15.012 2.73964 15.4974 3.3043 15.4974C3.86896 15.4974 4.32723 15.012 4.32723 14.414V12.346C4.32723 11.748 3.86896 11.2626 3.3043 11.2626ZM5.1292 6.10812C4.4019 6.48946 3.76155 7.05712 3.27873 7.75046C2.94321 8.23254 3.03936 8.91071 3.49354 9.26604C3.67665 9.40796 3.88941 9.47729 4.10014 9.47729C4.41418 9.47729 4.72412 9.32454 4.92462 9.03746C5.21513 8.62037 5.59975 8.27912 6.03654 8.05054C6.54289 7.78404 6.75054 7.13404 6.49993 6.59887C6.24829 6.06262 5.63555 5.84271 5.1292 6.10812ZM11.3527 9.41446C11.8191 9.07754 11.9378 8.40262 11.6187 7.90971C11.1604 7.19796 10.5395 6.60646 9.82546 6.19696C9.32832 5.91529 8.70843 6.10921 8.43837 6.63462C8.17037 7.16221 8.35552 7.81871 8.85266 8.10362C9.28126 8.34846 9.65361 8.70487 9.93082 9.13279C10.1282 9.43937 10.4494 9.60404 10.7758 9.60404C10.9742 9.60404 11.1757 9.54229 11.3527 9.41446ZM12.5106 14.57V12.502C12.5106 11.904 12.0524 11.4186 11.4877 11.4186C10.9231 11.4186 10.4648 11.904 10.4648 12.502V14.57C10.4648 15.168 10.9231 15.6534 11.4877 15.6534C12.0524 15.6534 12.5106 15.168 12.5106 14.57ZM3.3043 17.4647C2.73964 17.4647 2.28137 17.949 2.28137 18.548V19.6314C2.28137 20.2305 2.73964 20.7147 3.3043 20.7147C3.86896 20.7147 4.32723 20.2305 4.32723 19.6314V18.548C4.32723 17.949 3.86896 17.4647 3.3043 17.4647Z" fill="#45BD62"/>
</svg>
