<svg width="30" height="31" viewBox="0 0 30 31" fill="none" xmlns="http://www.w3.org/2000/svg">
<path fill-rule="evenodd" clip-rule="evenodd" d="M26.4137 10.49L28.1383 8.66357C28.6152 8.15853 28.6152 7.34091 28.1383 6.83716C27.6614 6.33211 26.8906 6.33211 26.4137 6.83716L24.6891 8.66357L22.9646 6.83716C22.4877 6.33211 21.7156 6.33211 21.24 6.83716C20.7631 7.34091 20.7631 8.15853 21.24 8.66357L22.9646 10.49L21.24 12.3164C20.7631 12.8214 20.7631 13.6391 21.24 14.1428C21.4778 14.3947 21.79 14.5213 22.1023 14.5213C22.4145 14.5213 22.7267 14.3947 22.9646 14.1428L24.6891 12.3164L26.4137 14.1428C26.6515 14.3947 26.9638 14.5213 27.276 14.5213C27.5882 14.5213 27.9005 14.3947 28.1383 14.1428C28.6152 13.6391 28.6152 12.8214 28.1383 12.3164L26.4137 10.49ZM24.6891 16.3025C24.0147 16.3025 23.4695 16.8812 23.4695 17.5942V18.8858C23.4695 19.6001 24.0147 20.1775 24.6891 20.1775C25.3636 20.1775 25.9088 19.6001 25.9088 18.8858V17.5942C25.9088 16.8812 25.3636 16.3025 24.6891 16.3025ZM16.9346 22.7182C16.426 22.3798 15.9797 21.9225 15.6455 21.3904C15.2723 20.7962 14.5149 20.636 13.955 21.0326C13.394 21.4291 13.2428 22.2299 13.616 22.8241C14.1404 23.6559 14.8393 24.3767 15.6394 24.9076C15.8406 25.0419 16.0638 25.1039 16.2858 25.1039C16.6919 25.1039 17.0883 24.8895 17.32 24.4994C17.6774 23.8949 17.5054 23.0979 16.9346 22.7182ZM21.9913 22.3074C21.5278 22.7324 20.9973 23.0385 20.4143 23.2207C19.7691 23.4247 19.4008 24.1416 19.591 24.8275C19.7484 25.3881 20.235 25.751 20.7607 25.751C20.8753 25.751 20.9924 25.7355 21.107 25.6981C22.023 25.4113 22.8572 24.9282 23.5854 24.263C24.0952 23.798 24.1525 22.9817 23.711 22.4418C23.2719 21.8993 22.4987 21.8412 21.9913 22.3074ZM3.95518 13.4285C3.28194 13.4285 2.73553 14.0072 2.73553 14.7202V17.186C2.73553 17.899 3.28194 18.4777 3.95518 18.4777C4.62842 18.4777 5.17482 17.899 5.17482 17.186V14.7202C5.17482 14.0072 4.62842 13.4285 3.95518 13.4285ZM6.13103 7.28278C5.26386 7.73745 4.50036 8.41428 3.92469 9.24095C3.52464 9.81574 3.63929 10.6243 4.18081 11.048C4.39913 11.2172 4.65282 11.2999 4.90406 11.2999C5.27849 11.2999 5.64805 11.1177 5.8871 10.7754C6.23348 10.2782 6.69206 9.87128 7.21285 9.59874C7.81657 9.28099 8.06416 8.50599 7.76535 7.86791C7.46532 7.22853 6.73475 6.96632 6.13103 7.28278ZM13.5513 11.2249C14.1075 10.8232 14.249 10.0185 13.8685 9.43082C13.3221 8.5822 12.5817 7.87695 11.7304 7.3887C11.1377 7.05286 10.3986 7.28407 10.0766 7.91053C9.75703 8.53957 9.97778 9.32232 10.5705 9.66203C11.0816 9.95395 11.5255 10.3789 11.856 10.8891C12.0914 11.2547 12.4744 11.451 12.8635 11.451C13.1001 11.451 13.3403 11.3774 13.5513 11.2249ZM14.932 17.372V14.9062C14.932 14.1932 14.3856 13.6145 13.7123 13.6145C13.0391 13.6145 12.4927 14.1932 12.4927 14.9062V17.372C12.4927 18.085 13.0391 18.6637 13.7123 18.6637C14.3856 18.6637 14.932 18.085 14.932 17.372ZM3.95518 20.8233C3.28194 20.8233 2.73553 21.4007 2.73553 22.115V23.4067C2.73553 24.1209 3.28194 24.6983 3.95518 24.6983C4.62842 24.6983 5.17482 24.1209 5.17482 23.4067V22.115C5.17482 21.4007 4.62842 20.8233 3.95518 20.8233Z" fill="#F02849"/>
</svg>
