<svg width="18" height="18" viewBox="0 0 18 18" fill="none" xmlns="http://www.w3.org/2000/svg">
<g filter="url(#filter0_i_1025_46938)">
<path d="M4.24943 0.974609C3.58925 0.974609 3.05455 1.52582 3.05455 2.19014C3.05455 2.85445 3.58925 3.40293 4.24943 3.40293C4.90961 3.40293 5.44594 2.85445 5.44594 2.19014C5.44594 1.52582 4.90962 0.974609 4.24943 0.974609ZM7.26487 0.974609C6.53227 0.974609 5.93856 1.58501 5.93856 2.32318C5.93856 3.06134 6.53227 3.67014 7.26487 3.67014C7.99748 3.67014 8.59282 3.06134 8.59282 2.32318C8.59282 1.58501 7.99748 0.974609 7.26487 0.974609ZM1.99328 2.59206C1.44172 2.59206 0.993379 3.05254 0.993381 3.60607C0.993384 4.15961 1.44173 4.62006 1.99328 4.62006C2.54483 4.62006 2.99317 4.15961 2.99318 3.60607C2.99318 3.05254 2.54483 2.59206 1.99328 2.59206ZM5.46331 3.78803C5.42272 3.78776 5.38185 3.78774 5.34112 3.78857C4.68942 3.8023 4.0233 3.97782 3.45049 4.32463C2.30488 5.01827 1.59718 6.46871 2.28684 8.5749L4.68664 13.8125C5.08865 14.6895 6.14849 15.0494 6.9895 14.5887L7.30397 14.416C8.15077 13.9521 8.5807 12.8551 8.14311 11.9632C7.7034 11.067 7.53536 10.4164 7.57065 9.80588C7.60569 9.19952 7.84439 8.60337 8.28432 7.82403C8.60636 7.3481 8.56968 6.66049 8.36525 5.98335C8.16011 5.30388 7.75938 4.62377 7.14973 4.22606C6.66217 3.94136 6.07215 3.79397 5.46331 3.78803ZM10.0174 4.18502C9.28484 4.18502 8.69166 4.79381 8.69167 5.53198C8.69168 6.27014 9.28485 6.88058 10.0174 6.88058C10.75 6.88058 11.3454 6.27014 11.3454 5.53198C11.3454 4.79381 10.7501 4.18502 10.0174 4.18502ZM13.0351 4.18502C12.3749 4.18502 11.8385 4.73405 11.8386 5.39837C11.8386 6.06268 12.3749 6.61173 13.0351 6.61173C13.6952 6.61174 14.2299 6.06268 14.2299 5.39837C14.23 4.73405 13.6953 4.18502 13.0351 4.18502ZM0.815779 4.80312C0.363238 4.81501 0 5.19757 0 5.65309C8.29886e-06 6.11584 0.374979 6.50092 0.837503 6.50092C1.30003 6.50092 1.67717 6.11584 1.67718 5.65309C1.67718 5.19033 1.30003 4.80312 0.837503 4.80312C0.830276 4.80312 0.822954 4.80293 0.815779 4.80312ZM5.46169 4.98452C5.8942 4.98117 6.31594 5.09012 6.66146 5.30985C6.79069 5.39267 6.82837 5.56456 6.74565 5.69385C6.66282 5.82308 6.49095 5.86076 6.36165 5.77804C6.0156 5.55792 5.48956 5.48138 5.00275 5.59932C4.51593 5.71727 4.07946 6.0132 3.85078 6.51722C3.78698 6.65617 3.62297 6.71756 3.48362 6.65464C3.34353 6.59166 3.28103 6.42703 3.34404 6.28693C3.64988 5.61287 4.2471 5.20908 4.87131 5.05784C5.06638 5.01052 5.2651 4.98586 5.46169 4.98452ZM15.2651 5.803C14.7255 5.81699 14.2913 6.26997 14.2913 6.81485C14.2913 7.36839 14.7397 7.82889 15.2912 7.82889C15.8428 7.82889 16.2889 7.36839 16.2889 6.81485C16.2889 6.26132 15.8428 5.803 15.2912 5.803C15.2826 5.803 15.2737 5.80279 15.2651 5.803ZM8.86819 9.24536C8.6799 9.91011 8.68687 10.5696 8.99582 11.029C9.43714 11.8102 9.67656 12.4089 9.71167 13.0163C9.74695 13.6268 9.58054 14.2753 9.14084 15.1714C8.70324 16.0633 9.13158 17.163 9.97834 17.6269L10.2944 17.7991C11.1355 18.2598 12.1958 17.8982 12.5978 17.0213L14.9977 11.7847C15.6873 9.67964 14.9791 8.22706 13.8335 7.53343C13.2606 7.18661 12.5945 7.01116 11.882 6.99709C11.2123 7.00211 10.6223 7.15013 10.1315 7.43673C9.46811 7.89307 9.0576 8.57668 8.86819 9.24536ZM3.39726 7.20483C3.55172 7.1973 3.68277 7.31696 3.68892 7.47149C3.69427 7.58873 3.70622 7.71219 3.72803 7.843C3.75356 7.99448 3.65141 8.13797 3.49991 8.16344C3.34789 8.1889 3.20415 8.08589 3.17947 7.93369C3.15425 7.78236 3.13917 7.63724 3.13276 7.49648C3.12509 7.34283 3.2436 7.21215 3.39726 7.20483ZM16.4448 8.01136C15.9823 8.01136 15.6073 8.3986 15.6073 8.86136C15.6073 9.32412 15.9823 9.71135 16.4448 9.71135C16.9073 9.71135 17.2823 9.32412 17.2823 8.86136C17.2823 8.3986 16.9073 8.01136 16.4448 8.01136ZM12.4132 8.19439C12.8189 8.26683 13.209 8.44709 13.5337 8.74242C13.6478 8.84583 13.6561 9.02249 13.5521 9.13619C13.4489 9.24895 13.2739 9.2572 13.1605 9.15469C12.6714 8.70972 11.9813 8.6052 11.391 8.82231C11.3144 8.85061 11.2393 8.88409 11.1672 8.92277C11.0324 8.99504 10.8644 8.94488 10.7914 8.81035C10.7177 8.67482 10.7684 8.50519 10.9044 8.43234C10.9999 8.38109 11.0974 8.33774 11.1977 8.30088C11.4524 8.20713 11.7216 8.15805 11.9912 8.15805C12.1323 8.15721 12.2737 8.16952 12.4132 8.19439ZM10.4302 9.22688C10.5665 9.29915 10.6179 9.46852 10.5448 9.60435C10.5161 9.65828 10.49 9.71249 10.465 9.76893C10.4026 9.90965 10.2378 9.97296 10.0973 9.91015C9.95809 9.84785 9.89509 9.68497 9.95608 9.54516C9.9862 9.47716 10.0192 9.40779 10.0544 9.34148C10.1382 9.18733 10.299 9.16765 10.4302 9.22688Z" fill="url(#paint0_linear_1025_46938)"/>
</g>
<defs>
<filter id="filter0_i_1025_46938" x="0" y="0.974609" width="17.2823" height="17.0254" filterUnits="userSpaceOnUse" color-interpolation-filters="sRGB">
<feFlood flood-opacity="0" result="BackgroundImageFix"/>
<feBlend mode="normal" in="SourceGraphic" in2="BackgroundImageFix" result="shape"/>
<feColorMatrix in="SourceAlpha" type="matrix" values="0 0 0 0 0 0 0 0 0 0 0 0 0 0 0 0 0 0 127 0" result="hardAlpha"/>
<feOffset dx="0.3"/>
<feComposite in2="hardAlpha" operator="arithmetic" k2="-1" k3="1"/>
<feColorMatrix type="matrix" values="0 0 0 0 0.675 0 0 0 0 0.433969 0 0 0 0 0.118774 0 0 0 0.25 0"/>
<feBlend mode="normal" in2="shape" result="effect1_innerShadow_1025_46938"/>
</filter>
<linearGradient id="paint0_linear_1025_46938" x1="3.96482" y1="2.45302" x2="10.0128" y2="17.7747" gradientUnits="userSpaceOnUse">
<stop stop-color="#FFBD66"/>
<stop offset="1" stop-color="#FFA033"/>
</linearGradient>
</defs>
</svg>
