<svg width="16" height="17" viewBox="0 0 16 17" fill="none" xmlns="http://www.w3.org/2000/svg">
<g clip-path="url(#clip0_1025_47034)">
<path d="M8.63894 6.11381V11.4303C8.63894 11.959 8.4289 12.4661 8.05501 12.84C7.68112 13.2139 7.17403 13.4239 6.64527 13.4239H5.20318C5.04641 13.8675 4.73786 14.2414 4.33208 14.4795C3.92629 14.7176 3.4494 14.8045 2.9857 14.725C2.52199 14.6455 2.10133 14.4046 1.79808 14.0449C1.49482 13.6852 1.32849 13.2299 1.32849 12.7594C1.32849 12.2889 1.49482 11.8336 1.79808 11.4739C2.10133 11.1142 2.52199 10.8733 2.9857 10.7937C3.4494 10.7142 3.92629 10.8012 4.33208 11.0393C4.73786 11.2774 5.04641 11.6512 5.20318 12.0948H6.64527C6.82152 12.0948 6.99055 12.0248 7.11518 11.9002C7.23981 11.7755 7.30983 11.6065 7.30983 11.4303V6.11381C7.30983 5.58505 7.51988 5.07795 7.89376 4.70407C8.26765 4.33018 8.77474 4.12014 9.3035 4.12014H11.2972V2.12646L14.62 4.78469L11.2972 7.44292V5.44925H9.3035C9.12725 5.44925 8.95821 5.51927 8.83359 5.64389C8.70896 5.76852 8.63894 5.93756 8.63894 6.11381Z" fill="#6E2DEF"/>
</g>
<defs>
<clipPath id="clip0_1025_47034">
<rect width="15.9494" height="15.9494" fill="white" transform="translate(-0.000244141 0.797363)"/>
</clipPath>
</defs>
</svg>
