<svg width="28" height="26" viewBox="0 0 28 26" fill="none" xmlns="http://www.w3.org/2000/svg">
<path d="M25.5364 2.518C23.9434 0.894 21.8244 0 19.5694 0C17.4964 0 15.5354 0.756 13.9944 2.141C12.4474 0.779 10.4944 0.0319999 8.42943 0.0239999C6.16443 0.0419999 4.08743 0.885 2.50643 2.472C-0.817565 5.812 -0.838565 11.266 2.46243 14.63L12.3154 24.674C12.7634 25.132 13.3624 25.384 14.0004 25.384C14.6384 25.384 15.2364 25.132 15.6854 24.674L25.5384 14.63C28.8124 11.291 28.8124 5.858 25.5364 2.518ZM20.2124 3.04C20.3694 3.002 20.4994 3.002 20.5694 3.002C21.7404 3.002 22.8444 3.47 23.6814 4.321C24.6224 5.286 25.0934 6.608 24.9754 7.95C24.9294 8.47 24.4934 8.862 23.9804 8.862C23.9514 8.862 23.9214 8.861 23.8914 8.858C23.3414 8.81 22.9344 8.324 22.9834 7.774C23.0504 7.013 22.7844 6.265 22.2534 5.72C21.8034 5.262 21.2124 5.007 20.5894 5.002C20.0914 5.072 19.6004 4.753 19.4784 4.249C19.3474 3.712 19.6764 3.171 20.2124 3.04Z" fill="#F25949"/>
<path d="M19.4785 4.24895C19.6005 4.75295 20.0915 5.07295 20.5895 5.00195C21.2125 5.00695 21.8035 5.26295 22.2535 5.71995C22.7845 6.26395 23.0515 7.01295 22.9835 7.77395C22.9345 8.32395 23.3415 8.80995 23.8915 8.85795C23.9215 8.85995 23.9515 8.86195 23.9805 8.86195C24.4935 8.86195 24.9295 8.46995 24.9755 7.94995C25.0935 6.60795 24.6225 5.28595 23.6815 4.32095C22.8455 3.46995 21.7405 3.00195 20.5695 3.00195C20.4995 3.00195 20.3695 3.00195 20.2125 3.03995C19.6765 3.17095 19.3475 3.71195 19.4785 4.24895Z" fill="white"/>
</svg>
