<svg width="13" height="15" viewBox="0 0 13 15" fill="none" xmlns="http://www.w3.org/2000/svg">
<path fill-rule="evenodd" clip-rule="evenodd" d="M4.57457 5.85367C5.92804 5.85367 7.02524 4.76168 7.02524 3.41464C7.02524 2.0676 5.92804 0.975612 4.57457 0.975612C3.22111 0.975612 2.12391 2.0676 2.12391 3.41464C2.12391 4.76168 3.22111 5.85367 4.57457 5.85367ZM4.57457 6.82928C2.67972 6.82928 1.14364 5.30049 1.14364 3.41464C1.14364 1.52879 2.67972 0 4.57457 0C6.46942 0 8.0055 1.52879 8.0055 3.41464C8.0055 5.30049 6.46942 6.82928 4.57457 6.82928ZM8.16852 12.7436C8.16829 12.0077 8.1678 11.2042 8.16788 11.2069C8.12344 9.7206 6.56181 8.4553 4.57457 8.4553C2.59243 8.4553 1.03271 9.71453 0.981593 11.1967C0.981699 11.1936 0.98105 11.9979 0.980748 12.7363C0.98067 12.9291 0.980597 14.1051 0.980531 14.309H8.16868C8.16863 14.1076 8.16858 12.934 8.16852 12.7436ZM9.14915 14.309H0C0 14.309 0.000637403 11.1999 0.00190361 11.1632C0.0724119 9.11893 2.09268 7.47969 4.57457 7.47969C7.0624 7.47969 9.08639 9.12678 9.14772 11.1779C9.14867 11.2097 9.14915 14.309 9.14915 14.309ZM5.25682 11.2928C5.34929 11.4439 5.54687 11.5872 5.71971 11.6285L7.02524 11.9407L6.1327 12.9559C6.0133 13.0917 5.94169 13.3261 5.96489 13.505L6.13244 14.7973L4.85899 14.2903C4.69416 14.2247 4.44975 14.2277 4.28663 14.2973L3.11421 14.7974L3.19861 13.4954C3.21012 13.3178 3.12893 13.0877 3.00841 12.9564L2.12391 11.9922L3.44471 11.6445C3.61577 11.5995 3.81072 11.4533 3.90144 11.3021L4.57521 10.1789L5.25682 11.2928ZM7.12326 7.54473C7.6134 5.91871 9.44323 4.7805 10.4235 6.60164C11.4038 8.42278 12.5801 5.17074 12.5801 5.17074V8.87807C12.5801 8.87807 9.73731 12.2342 9.4759 10.1138C9.2145 7.9935 6.85483 7.68065 7.12326 7.54473Z" fill="#F02929"/>
</svg>
