<svg width="34" height="34" viewBox="0 0 34 34" fill="none" xmlns="http://www.w3.org/2000/svg">
<circle cx="16.8308" cy="16.9019" r="16.5709" fill="#A19FF0"/>
<path d="M7.46454 18.3623C8.41376 23.0166 12.5271 26.5072 17.4671 26.5072C22.3867 26.5072 26.4898 23.0268 27.4594 18.3929" fill="#A19FF0"/>
<path d="M7.46454 18.3623C8.41376 23.0166 12.5271 26.5072 17.4671 26.5072C22.3867 26.5072 26.4898 23.0268 27.4594 18.3929" stroke="white" stroke-width="1.5" stroke-linecap="round" stroke-linejoin="round"/>
<path d="M12.8656 7.18652C10.1302 8.57463 8.09911 11.1569 7.4765 14.2393L12.8656 7.18652Z" fill="#A19FF0"/>
<path d="M12.8656 7.18652C10.1302 8.57463 8.09911 11.1569 7.4765 14.2393" stroke="white" stroke-width="1.5" stroke-linecap="round" stroke-linejoin="round"/>
<path d="M27.4808 14.3213C26.5622 9.62624 22.4285 6.09473 17.468 6.09473L27.4808 14.3213Z" fill="#A19FF0"/>
<path d="M27.4808 14.3213C26.5622 9.62624 22.4285 6.09473 17.468 6.09473" stroke="white" stroke-width="1.5" stroke-linecap="round" stroke-linejoin="round"/>
<path d="M17.468 17.8325C18.3135 17.8325 18.999 17.147 18.999 16.3015C18.999 15.456 18.3135 14.7705 17.468 14.7705C16.6224 14.7705 15.937 15.456 15.937 16.3015C15.937 17.147 16.6224 17.8325 17.468 17.8325Z" fill="#A19FF0" stroke="white" stroke-width="1.5" stroke-linecap="round" stroke-linejoin="round"/>
</svg>
