<svg width="34" height="34" viewBox="0 0 34 34" fill="none" xmlns="http://www.w3.org/2000/svg">
<circle cx="16.8308" cy="16.8062" r="16.5709" fill="#F5ACA4"/>
<path d="M7.46454 18.2676C8.41376 22.9218 12.5271 26.4125 17.4671 26.4125C22.3867 26.4125 26.4898 22.932 27.4594 18.2982" fill="#F5ACA4"/>
<path d="M7.46454 18.2676C8.41376 22.9218 12.5271 26.4125 17.4671 26.4125C22.3867 26.4125 26.4898 22.932 27.4594 18.2982" stroke="white" stroke-width="1.5" stroke-linecap="round" stroke-linejoin="round"/>
<path d="M12.8656 7.0918C10.1302 8.47991 8.09911 11.0622 7.4765 14.1446L12.8656 7.0918Z" fill="#F5ACA4"/>
<path d="M12.8656 7.0918C10.1302 8.47991 8.09911 11.0622 7.4765 14.1446" stroke="white" stroke-width="1.5" stroke-linecap="round" stroke-linejoin="round"/>
<path d="M27.4808 14.2266C26.5622 9.53152 22.4285 6 17.468 6L27.4808 14.2266Z" fill="#F5ACA4"/>
<path d="M27.4808 14.2266C26.5622 9.53152 22.4285 6 17.468 6" stroke="white" stroke-width="1.5" stroke-linecap="round" stroke-linejoin="round"/>
<path d="M17.468 17.7368C18.3135 17.7368 18.999 17.0513 18.999 16.2058C18.999 15.3603 18.3135 14.6748 17.468 14.6748C16.6224 14.6748 15.937 15.3603 15.937 16.2058C15.937 17.0513 16.6224 17.7368 17.468 17.7368Z" fill="#F5ACA4" stroke="white" stroke-width="1.5" stroke-linecap="round" stroke-linejoin="round"/>
</svg>
