<svg width="34" height="34" viewBox="0 0 34 34" fill="none" xmlns="http://www.w3.org/2000/svg">
<circle cx="16.8308" cy="16.7593" r="16.5709" fill="#EAB1F3"/>
<path d="M7.46454 18.2207C8.41376 22.875 12.5271 26.3656 17.4671 26.3656C22.3867 26.3656 26.4898 22.8852 27.4594 18.2513" fill="#EAB1F3"/>
<path d="M7.46454 18.2207C8.41376 22.875 12.5271 26.3656 17.4671 26.3656C22.3867 26.3656 26.4898 22.8852 27.4594 18.2513" stroke="white" stroke-width="1.5" stroke-linecap="round" stroke-linejoin="round"/>
<path d="M12.8656 7.04492C10.1302 8.43303 8.09911 11.0153 7.4765 14.0977L12.8656 7.04492Z" fill="#EAB1F3"/>
<path d="M12.8656 7.04492C10.1302 8.43303 8.09911 11.0153 7.4765 14.0977" stroke="white" stroke-width="1.5" stroke-linecap="round" stroke-linejoin="round"/>
<path d="M27.4808 14.1797C26.5622 9.48464 22.4285 5.95312 17.468 5.95312L27.4808 14.1797Z" fill="#EAB1F3"/>
<path d="M27.4808 14.1797C26.5622 9.48464 22.4285 5.95312 17.468 5.95312" stroke="white" stroke-width="1.5" stroke-linecap="round" stroke-linejoin="round"/>
<path d="M17.468 17.6899C18.3135 17.6899 18.999 17.0045 18.999 16.1589C18.999 15.3134 18.3135 14.6279 17.468 14.6279C16.6224 14.6279 15.937 15.3134 15.937 16.1589C15.937 17.0045 16.6224 17.6899 17.468 17.6899Z" fill="#EAB1F3" stroke="white" stroke-width="1.5" stroke-linecap="round" stroke-linejoin="round"/>
</svg>
