<svg width="34" height="34" viewBox="0 0 34 34" fill="none" xmlns="http://www.w3.org/2000/svg">
<circle cx="16.8308" cy="16.855" r="16.5709" fill="#A4E9A9"/>
<path d="M7.46454 18.3145C8.41376 22.9687 12.5271 26.4594 17.4671 26.4594C22.3867 26.4594 26.4898 22.9789 27.4594 18.3451" fill="#A4E9A9"/>
<path d="M7.46454 18.3145C8.41376 22.9687 12.5271 26.4594 17.4671 26.4594C22.3867 26.4594 26.4898 22.9789 27.4594 18.3451" stroke="white" stroke-width="1.5" stroke-linecap="round" stroke-linejoin="round"/>
<path d="M12.8656 7.13965C10.1302 8.52776 8.09911 11.1101 7.4765 14.1925L12.8656 7.13965Z" fill="#A4E9A9"/>
<path d="M12.8656 7.13965C10.1302 8.52776 8.09911 11.1101 7.4765 14.1925" stroke="white" stroke-width="1.5" stroke-linecap="round" stroke-linejoin="round"/>
<path d="M27.4808 14.2735C26.5622 9.57839 22.4285 6.04688 17.468 6.04688L27.4808 14.2735Z" fill="#A4E9A9"/>
<path d="M27.4808 14.2735C26.5622 9.57839 22.4285 6.04688 17.468 6.04688" stroke="white" stroke-width="1.5" stroke-linecap="round" stroke-linejoin="round"/>
<path d="M17.468 17.7847C18.3135 17.7847 18.999 17.0992 18.999 16.2537C18.999 15.4081 18.3135 14.7227 17.468 14.7227C16.6224 14.7227 15.937 15.4081 15.937 16.2537C15.937 17.0992 16.6224 17.7847 17.468 17.7847Z" fill="#A4E9A9" stroke="white" stroke-width="1.5" stroke-linecap="round" stroke-linejoin="round"/>
</svg>
