<svg width="19" height="19" viewBox="0 0 19 19" fill="none" xmlns="http://www.w3.org/2000/svg">
<g filter="url(#filter0_i_477_14345)">
<path d="M10.3397 0.347807C9.87598 -0.115936 9.12407 -0.115936 8.66032 0.347807L0.347807 8.66032C-0.115936 9.12407 -0.115936 9.87598 0.347807 10.3397C0.811562 10.8034 1.56344 10.8034 2.0272 10.3397L2.375 9.99188V17.8125C2.375 18.4684 2.90667 19 3.56251 19H5.93751C6.59334 19 7.12501 18.4684 7.12501 17.8125V15.4375C7.12501 14.7817 7.65668 14.25 8.31251 14.25H10.6875C11.3434 14.25 11.875 14.7817 11.875 15.4375V17.8125C11.875 18.4684 12.4067 19 13.0625 19H15.4375C16.0934 19 16.625 18.4684 16.625 17.8125V9.99188L16.9728 10.3397C17.4366 10.8034 18.1885 10.8034 18.6522 10.3397C19.1159 9.87598 19.1159 9.12407 18.6522 8.66032L10.3397 0.347807Z" fill="url(#paint0_linear_477_14345)"/>
</g>
<defs>
<filter id="filter0_i_477_14345" x="0" y="0" width="19" height="23" filterUnits="userSpaceOnUse" color-interpolation-filters="sRGB">
<feFlood flood-opacity="0" result="BackgroundImageFix"/>
<feBlend mode="normal" in="SourceGraphic" in2="BackgroundImageFix" result="shape"/>
<feColorMatrix in="SourceAlpha" type="matrix" values="0 0 0 0 0 0 0 0 0 0 0 0 0 0 0 0 0 0 127 0" result="hardAlpha"/>
<feOffset dy="4"/>
<feGaussianBlur stdDeviation="2"/>
<feComposite in2="hardAlpha" operator="arithmetic" k2="-1" k3="1"/>
<feColorMatrix type="matrix" values="0 0 0 0 0 0 0 0 0 0 0 0 0 0 0 0 0 0 0.25 0"/>
<feBlend mode="normal" in2="shape" result="effect1_innerShadow_477_14345"/>
</filter>
<linearGradient id="paint0_linear_477_14345" x1="8" y1="2" x2="15" y2="19.5" gradientUnits="userSpaceOnUse">
<stop stop-color="#CA6206"/>
<stop offset="0.439536" stop-color="#F28321"/>
<stop offset="1" stop-color="#93A8CE"/>
</linearGradient>
</defs>
</svg>
