<svg width="20" height="20" viewBox="0 0 20 20" fill="none" xmlns="http://www.w3.org/2000/svg">
<g clip-path="url(#clip0_892_832)">
<path d="M20 10C20 13.7318 17.9556 16.9862 14.9255 18.7039V18.7045C13.4717 19.5288 11.7905 20 10 20C8.69385 20 7.44614 19.7493 6.30264 19.2938H6.30142C2.6091 17.8236 0 14.2169 0 10C0 7.19742 1.1528 4.66354 3.01056 2.84851C4.81308 1.08627 7.27966 0 10 0C11.1421 0 12.2397 0.19165 13.2619 0.544128C17.1829 1.89667 20 5.6192 20 10Z" fill="#77C6CF"/>
<path d="M12.1103 19.7763C11.4299 19.9228 10.7237 20 10 20C8.69385 20 7.44614 19.7493 6.30264 19.2938H6.30142C2.6091 17.8236 0 14.2169 0 10C0 7.19742 1.1528 4.66354 3.01056 2.84851C4.81308 1.08627 7.27966 0 10 0C10.7237 0 11.4293 0.0765991 12.1091 0.223694C10.2338 0.626373 8.55377 1.55563 7.23129 2.84851C5.37354 4.66354 4.22058 7.19742 4.22058 10C4.22058 14.2169 6.82983 17.8236 10.5222 19.2938H10.5234C11.0329 19.4968 11.5631 19.6594 12.1103 19.7763Z" fill="#3C9BA5"/>
<path d="M19.9963 10.0008C19.9963 13.7326 17.952 16.987 14.9219 18.7047C13.1792 15.1551 9.12553 18.297 8.65434 13.8684C8.18376 9.43912 13.5077 10.9941 15.0626 9.43912C16.6176 7.88425 15.0626 5.48114 13.7433 6.80042C12.4239 8.11984 10.445 7.74295 10.9161 6.42352C11.3873 5.10425 13.649 4.53876 12.0218 3.97327C10.394 3.40854 12.0218 1.78073 13.257 0.545532L13.2582 0.544922C15.8586 1.44199 17.9733 3.38153 19.1023 5.86383C17.8897 5.86383 16.7589 7.9314 17.8897 9.06223C18.5036 9.67609 19.2664 9.84378 19.9957 9.89841C19.9963 9.93228 19.9963 9.96692 19.9963 10.0008Z" fill="#FCE065"/>
<path d="M6.30264 19.293H6.30142C2.6091 17.8228 0 14.2161 0 9.99915C0 7.19656 1.1528 4.66269 3.01056 2.84766C5.7373 3.50104 6.2085 5.38519 4.41788 6.04483C2.6532 6.69516 2.53632 7.8945 4.33685 8.46991C4.36386 8.47876 4.39026 8.48685 4.41788 8.49509C5.69138 8.87701 5.20081 10.0771 4.254 10.8153C3.80035 11.169 3.24127 11.4165 2.72156 11.4165C1.11954 11.4165 2.43896 14.6677 4.37088 14.6677C6.3028 14.6677 6.30264 19.293 6.30264 19.293Z" fill="#FCE065"/>
<path d="M6.30264 19.293H6.30142C2.6091 17.8228 0 14.2161 0 9.99915C0 7.19656 1.1528 4.66269 3.01056 2.84766C5.7373 3.50104 6.2085 5.38519 4.41788 6.04483C2.6532 6.69516 2.53632 7.8945 4.33685 8.46991C4.26025 8.96872 4.22058 9.47897 4.22058 9.99915C4.22058 10.2737 4.23187 10.5457 4.25385 10.8153C3.80035 11.169 3.24112 11.4165 2.72156 11.4165C1.11954 11.4165 2.43881 14.6677 4.37073 14.6677C6.30264 14.6677 6.30264 19.293 6.30264 19.293Z" fill="#F9A53F"/>
<path d="M3.46212 9.85119C3.34173 9.85119 3.22744 9.77963 3.17891 9.66122C2.98192 9.18148 2.89144 8.8786 2.88778 8.86578C2.83956 8.70373 2.93203 8.53344 3.09423 8.48538C3.25612 8.43731 3.42656 8.52963 3.47463 8.69168C3.47555 8.69442 3.56115 8.98053 3.74532 9.42868C3.80941 9.58508 3.73479 9.76391 3.57839 9.82815C3.54024 9.84387 3.50087 9.85119 3.46212 9.85119Z" fill="#445166"/>
<path d="M12.3855 16.2715C12.2254 16.2715 12.0908 16.1474 12.0801 15.9855C12.0692 15.8167 12.1969 15.671 12.3656 15.6599C12.8875 15.6257 13.4312 15.5436 13.9814 15.4161C14.146 15.3779 14.3105 15.4804 14.3487 15.6451C14.387 15.8099 14.2843 15.9744 14.1196 16.0125C13.5372 16.1476 12.9606 16.2344 12.4058 16.2709C12.3989 16.2713 12.3922 16.2715 12.3855 16.2715ZM10.7047 16.2205C10.6913 16.2205 10.6777 16.2196 10.6641 16.2177C10.0811 16.1405 9.5098 16.0005 8.96628 15.8013C8.80759 15.7432 8.72596 15.5673 8.78409 15.4086C8.84223 15.2499 9.01801 15.1683 9.17686 15.2264C9.67841 15.4101 10.2058 15.5395 10.7444 15.6108C10.9121 15.633 11.0299 15.7868 11.0078 15.9544C10.9873 16.1085 10.8558 16.2205 10.7047 16.2205ZM7.56522 15.0721C7.50877 15.0721 7.45185 15.0567 7.40073 15.0241C6.9242 14.7201 6.46354 14.3579 6.03187 13.9475C5.90919 13.8311 5.9043 13.6373 6.02073 13.5148C6.13715 13.3923 6.33094 13.3872 6.45347 13.5037C6.85691 13.887 7.28644 14.225 7.73002 14.508C7.87253 14.5989 7.9145 14.7882 7.82355 14.9307C7.76511 15.0222 7.66624 15.0721 7.56522 15.0721ZM5.12229 12.7746C5.02982 12.7746 4.93857 12.7331 4.8783 12.6539C4.5391 12.208 4.22019 11.7227 3.93043 11.211C3.84711 11.0638 3.89884 10.877 4.04594 10.7937C4.19318 10.7104 4.37995 10.7621 4.46326 10.9092C4.73945 11.397 5.0431 11.8592 5.36552 12.2833C5.4679 12.4177 5.44181 12.6098 5.30723 12.7122C5.25199 12.7543 5.18684 12.7746 5.12229 12.7746Z" fill="#445166"/>
<path d="M15.6657 15.5303C15.5413 15.5303 15.4246 15.4542 15.3787 15.3309C15.3198 15.1725 15.4003 14.9963 15.5589 14.9372C15.8028 14.8464 16.0528 14.746 16.3015 14.6384C16.4567 14.5714 16.6369 14.6429 16.7039 14.798C16.771 14.9532 16.6996 15.1334 16.5443 15.2004C16.2858 15.3121 16.0261 15.4166 15.7723 15.5111C15.7371 15.5242 15.7011 15.5303 15.6657 15.5303Z" fill="#445166"/>
<path d="M6.11899 3.2627C5.5358 0.000976562 0.834259 0.000976562 0.250916 3.2627C0.199036 3.55307 0.171875 3.85199 0.171875 4.15732C0.171875 6.22137 1.41058 7.99597 3.18503 8.7789C4.95947 7.99597 6.19803 6.22137 6.19803 4.15732C6.19803 3.85199 6.17102 3.55307 6.11899 3.2627Z" fill="#FF616D"/>
<path d="M3.18503 8.77814C1.41058 7.99506 0.171875 6.22061 0.171875 4.15656C0.171875 3.85123 0.199036 3.55231 0.251068 3.26193C0.539154 1.65076 1.83173 0.835632 3.13666 0.816406C2.12225 0.841583 0.788788 1.6564 0.564636 3.26193C0.5242 3.55231 0.502991 3.85123 0.502991 4.15656C0.502991 6.22061 1.8006 7.99506 3.18503 8.77814Z" fill="#E53467"/>
<path d="M5.24759 3.80942C5.24759 4.95001 4.32306 5.87454 3.18246 5.87454C2.04187 5.87454 1.11719 4.95001 1.11719 3.80942C1.11719 2.66882 2.04187 1.74414 3.18246 1.74414C4.32306 1.74414 5.24759 2.66882 5.24759 3.80942Z" fill="#E53467"/>
<path d="M4.80743 3.80981C4.80743 4.6431 4.17923 5.32974 3.37067 5.42175C3.30978 5.42877 3.24783 5.43243 3.18497 5.43243C2.28897 5.43243 1.5625 4.70596 1.5625 3.80981C1.5625 2.91382 2.28897 2.1875 3.18497 2.1875C3.24783 2.1875 3.30978 2.19116 3.37067 2.19818C4.17923 2.29019 4.80743 2.97668 4.80743 3.80981Z" fill="#E5E5E5"/>
<path d="M4.80338 3.8089C4.80338 4.64218 4.17517 5.32883 3.36661 5.42084C2.55804 5.32883 1.92969 4.64218 1.92969 3.8089C1.92969 2.97577 2.55804 2.28928 3.36661 2.19727C4.17517 2.28928 4.80338 2.97577 4.80338 3.8089Z" fill="#FCFCFC"/>
<path d="M19.3612 9.40332C18.778 6.1416 14.0764 6.1416 13.4931 9.40332C13.4412 9.6937 13.4141 9.99261 13.4141 10.2979C13.4141 12.362 14.6528 14.1364 16.4272 14.9195C18.2015 14.1364 19.4402 12.362 19.4402 10.2979C19.4402 9.99261 19.4131 9.6937 19.3612 9.40332Z" fill="#FF616D"/>
<path d="M16.4272 14.9188C14.6528 14.1357 13.4141 12.3612 13.4141 10.2972C13.4141 9.99185 13.4412 9.69293 13.4933 9.40256C13.7813 7.79138 15.0739 6.97626 16.3788 6.95703C15.3643 6.98221 14.031 7.79703 13.8068 9.40256C13.7664 9.69293 13.7452 9.99185 13.7452 10.2972C13.7452 12.3612 15.0428 14.1357 16.4272 14.9188Z" fill="#E53467"/>
<path d="M18.4898 9.94989C18.4898 11.0905 17.5652 12.0152 16.4247 12.0152C15.2841 12.0152 14.3594 11.0905 14.3594 9.94989C14.3594 8.8093 15.2841 7.88477 16.4247 7.88477C17.5652 7.88477 18.4898 8.8093 18.4898 9.94989Z" fill="#E53467"/>
<path d="M18.0496 9.95044C18.0496 10.7836 17.4216 11.4704 16.613 11.5624C16.552 11.5694 16.4902 11.5731 16.4273 11.5731C15.5313 11.5731 14.8047 10.8464 14.8047 9.95044C14.8047 9.05444 15.5313 8.32812 16.4273 8.32812C16.4902 8.32812 16.552 8.33163 16.613 8.33865C17.4216 8.43066 18.0496 9.11731 18.0496 9.95044Z" fill="#E5E5E5"/>
<path d="M18.0454 9.94968C18.0454 10.7828 17.4174 11.4696 16.6088 11.5616C15.8001 11.4696 15.1719 10.7828 15.1719 9.94968C15.1719 9.11655 15.8001 8.4299 16.6088 8.33789C17.4174 8.4299 18.0454 9.11655 18.0454 9.94968Z" fill="#FCFCFC"/>
</g>
<defs>
<clipPath id="clip0_892_832">
<rect width="20" height="20" fill="white"/>
</clipPath>
</defs>
</svg>
