<svg width="24" height="24" viewBox="0 0 24 24" fill="none" xmlns="http://www.w3.org/2000/svg">
<rect width="24" height="24" rx="12" fill="#494E4A"/>
<path d="M16.8214 17.4998H6.54193C6.13298 17.4998 5.74079 17.3418 5.45162 17.0605C5.16245 16.7792 5 16.3976 5 15.9998V7.99997C5 7.60215 5.16245 7.22063 5.45162 6.93933C5.74079 6.65803 6.13298 6.5 6.54193 6.5H16.8214C17.2304 6.5 17.6226 6.65803 17.9117 6.93933C18.2009 7.22063 18.3634 7.60215 18.3634 7.99997V15.9998C18.3634 16.3976 18.2009 16.7792 17.9117 17.0605C17.6226 17.3418 17.2304 17.4998 16.8214 17.4998ZM6.54193 7.49998C6.40561 7.49998 6.27488 7.55266 6.17849 7.64642C6.0821 7.74019 6.02795 7.86736 6.02795 7.99997V15.9998C6.02795 16.1324 6.0821 16.2596 6.17849 16.3534C6.27488 16.4471 6.40561 16.4998 6.54193 16.4998H16.8214C16.9578 16.4998 17.0885 16.4471 17.1849 16.3534C17.2813 16.2596 17.3354 16.1324 17.3354 15.9998V7.99997C17.3354 7.86736 17.2813 7.74019 17.1849 7.64642C17.0885 7.55266 16.9578 7.49998 16.8214 7.49998H6.54193Z" fill="white"/>
<path d="M14.2515 11.4999C13.9466 11.4999 13.6484 11.412 13.3949 11.2472C13.1413 11.0823 12.9437 10.8481 12.827 10.574C12.7103 10.2999 12.6797 9.99831 12.7392 9.70734C12.7987 9.41638 12.9456 9.14911 13.1612 8.93933C13.3769 8.72956 13.6516 8.5867 13.9507 8.52882C14.2498 8.47095 14.5598 8.50065 14.8416 8.61418C15.1233 8.72771 15.3642 8.91996 15.5336 9.16663C15.703 9.4133 15.7935 9.70331 15.7935 9.99997C15.7935 10.3978 15.631 10.7793 15.3418 11.0606C15.0527 11.3419 14.6605 11.4999 14.2515 11.4999ZM14.2515 9.49998C14.1499 9.49998 14.0505 9.5293 13.966 9.58424C13.8815 9.63918 13.8156 9.71727 13.7767 9.80863C13.7378 9.89999 13.7276 10.0005 13.7474 10.0975C13.7673 10.1945 13.8162 10.2836 13.8881 10.3535C13.96 10.4234 14.0515 10.4711 14.1513 10.4904C14.251 10.5096 14.3543 10.4997 14.4482 10.4619C14.5421 10.4241 14.6224 10.36 14.6789 10.2778C14.7354 10.1955 14.7655 10.0989 14.7655 9.99997C14.7655 9.86737 14.7113 9.74019 14.615 9.64642C14.5186 9.55266 14.3878 9.49998 14.2515 9.49998Z" fill="white"/>
<path d="M16.8214 17.4996C16.7368 17.4992 16.6535 17.4784 16.5791 17.4391C16.5047 17.3999 16.4414 17.3434 16.3948 17.2746L14.1642 14.0246C14.1172 13.9566 14.0537 13.9008 13.9793 13.8623C13.9049 13.8237 13.8219 13.8035 13.7376 13.8035C13.6533 13.8035 13.5703 13.8237 13.4959 13.8623C13.4215 13.9008 13.358 13.9566 13.311 14.0246L13.1362 14.2746C13.0559 14.3717 12.9412 14.436 12.8147 14.4551C12.6881 14.4742 12.5588 14.4466 12.4521 14.3778C12.3453 14.309 12.2688 14.2039 12.2375 14.0831C12.2063 13.9622 12.2225 13.8344 12.283 13.7247L12.4526 13.4697C12.5933 13.2634 12.7842 13.0942 13.0084 12.9771C13.2326 12.8601 13.4831 12.7988 13.7376 12.7988C13.992 12.7988 14.2425 12.8601 14.4667 12.9771C14.6909 13.0942 14.8819 13.2634 15.0225 13.4697L17.248 16.7246C17.3224 16.8348 17.349 16.9692 17.3221 17.0984C17.2951 17.2276 17.2168 17.3413 17.1041 17.4146C17.0214 17.471 16.9225 17.5007 16.8214 17.4996Z" fill="white"/>
<path d="M6.54191 17.4992C6.44343 17.499 6.34709 17.4712 6.26437 17.4193C6.15001 17.3475 6.06957 17.2346 6.04066 17.1053C6.01176 16.9759 6.03676 16.8407 6.11017 16.7293L9.31224 11.9194C9.45121 11.7105 9.64142 11.5385 9.86573 11.4189C10.09 11.2993 10.3414 11.2359 10.5972 11.2344C10.8516 11.2343 11.102 11.2954 11.3262 11.4123C11.5504 11.5292 11.7414 11.6982 11.8821 11.9044L15.1818 16.7243C15.2424 16.834 15.2586 16.9619 15.2273 17.0827C15.1961 17.2035 15.1196 17.3086 15.0128 17.3774C14.9061 17.4462 14.7768 17.4738 14.6502 17.4547C14.5237 17.4356 14.409 17.3713 14.3286 17.2743L11.0238 12.4594C10.9772 12.3906 10.9139 12.334 10.8395 12.2948C10.7651 12.2555 10.6818 12.2348 10.5972 12.2344C10.5121 12.2353 10.4285 12.2568 10.3541 12.297C10.2796 12.3371 10.2165 12.3946 10.1706 12.4644L6.97365 17.2693C6.92721 17.3397 6.86336 17.3976 6.78793 17.4378C6.7125 17.478 6.62791 17.4991 6.54191 17.4992Z" fill="white"/>
</svg>
