<svg width="20" height="17" viewBox="0 0 20 17" fill="none" xmlns="http://www.w3.org/2000/svg">
<path d="M7.95265 1.24561C7.0363 1.24561 6.28695 1.86872 6.28696 2.63073C6.28697 3.39273 7.03631 4.0177 7.95265 4.0177C8.86898 4.0177 9.62049 3.39273 9.6205 2.63073C9.62051 1.86872 8.86899 1.24561 7.95265 1.24561ZM3.69147 1.55248C2.77513 1.55248 2.02651 2.178 2.02651 2.94002C2.02651 3.09045 2.08126 3.23422 2.13866 3.37627C1.56725 3.78245 1.099 4.30618 1.09888 4.94134C1.09888 6.0242 2.06889 6.92239 3.32244 7.07261V8.17013C2.63852 8.11474 2.01197 8.06732 1.4462 8.02273C1.25125 8.03318 1.09928 8.16716 1.09888 8.3296V13.5669C1.09888 14.414 1.93188 15.1091 2.95052 15.1091H16.2883C17.3069 15.1091 18.0517 14.414 18.0517 13.5669C18.0781 11.2192 18.1013 8.87222 18.0517 6.52506C17.9614 6.25556 17.7686 5.80905 17.3411 5.4961C16.9616 5.21829 16.4066 5.10559 15.7181 5.2103C15.2213 4.61657 14.4447 4.3176 13.7341 4.34323C13.3507 4.35708 12.9756 4.46778 12.703 4.70003C12.5572 4.8242 12.4511 4.98252 12.3853 5.16155C12.2151 5.11276 12.0331 5.0846 11.8441 5.0846C11.5787 5.0846 11.279 5.16289 11.0619 5.35718C10.9056 5.4971 10.8047 5.68671 10.7594 5.91198C10.1728 6.03094 9.87311 6.29931 9.8014 6.79468C9.79314 6.98034 9.84984 7.1592 9.95986 7.31516C9.68047 7.39663 9.39982 7.48555 9.11617 7.58834C8.92794 7.29723 8.55996 7.0973 8.13861 7.09733C7.72709 7.09735 7.36943 7.29022 7.17769 7.57029C6.80174 7.48213 6.38043 7.56087 6.08725 7.80435C5.88661 7.97119 5.7796 8.18377 5.76091 8.39887C5.22873 8.33332 4.66976 8.28174 4.06339 8.23098V7.07207C5.31626 6.92106 6.28696 6.02361 6.28696 4.9414C6.28708 4.30603 5.81947 3.78265 5.2479 3.37633C5.30569 3.23397 5.35995 3.09089 5.36005 2.94008C5.36005 2.17806 4.60781 1.55248 3.69147 1.55248ZM7.95265 1.86177C8.46855 1.86177 8.87956 2.20173 8.87955 2.63073C8.87955 3.05975 8.46854 3.40154 7.95265 3.40154C7.43675 3.40154 7.02791 3.05975 7.02791 2.63073C7.02791 2.20173 7.43674 1.86177 7.95265 1.86177ZM3.69147 2.16864C4.20738 2.16864 4.6191 2.511 4.6191 2.94002C4.61903 3.04784 4.59224 3.15264 4.53951 3.25112C4.46372 3.39101 4.52325 3.55596 4.67916 3.63802C5.21822 3.92032 5.54611 4.41159 5.54601 4.94134C5.54601 5.68978 4.91138 6.30991 4.06339 6.45225V6.04187C4.06265 5.87172 3.89608 5.73433 3.69147 5.735C3.48799 5.73564 3.32324 5.87267 3.32244 6.04187V6.45225C2.47392 6.31056 1.84055 5.69039 1.84055 4.94134C1.84065 4.41177 2.16563 3.92022 2.7045 3.63802C2.86121 3.55655 2.92172 3.39144 2.84633 3.25112C2.79351 3.1525 2.76746 3.04798 2.76745 2.94002C2.76746 2.511 3.17557 2.16864 3.69147 2.16864ZM13.7666 4.95698C14.2313 4.94021 14.8466 5.16899 15.064 5.49493C15.2814 5.82086 15.4664 5.89468 15.6429 5.85535C16.3118 5.70631 16.6175 5.78892 16.8513 5.96001C16.9907 6.06212 17.0834 6.30738 17.1899 6.50879C16.2567 6.55448 15.3645 6.58942 14.5271 6.63576C13.3514 6.68963 12.122 6.78509 10.7392 7.09725C10.5736 7.05401 10.5354 6.95539 10.5423 6.81745C10.6023 6.55466 10.7922 6.48871 11.0742 6.50034C11.3076 6.49563 11.4729 6.3576 11.4721 6.18746C11.4719 5.94297 11.5451 5.83218 11.606 5.77768C11.6669 5.72315 11.739 5.70074 11.8441 5.70074C12.0331 5.71439 12.2719 5.76789 12.3991 5.85357C12.5262 5.93919 12.6164 5.96257 12.708 5.95768C12.9128 5.94723 13.0685 5.80062 13.0553 5.63034C13.0358 5.37604 13.1148 5.23308 13.2333 5.13212C13.3519 5.03116 13.5343 4.96536 13.7666 4.95698ZM17.4012 7.16106V10.4555C16.0617 10.337 14.811 10.2988 13.5857 10.0547C13.6936 9.91252 13.7587 9.74581 13.7587 9.56672C13.7587 9.15343 13.4219 8.80271 12.9678 8.6858C12.8968 8.47718 12.7321 8.31755 12.5488 8.20082C12.3527 8.07679 12.1277 8.01746 11.9041 8.02514C11.5749 8.02514 11.28 8.1499 11.0756 8.34282C10.7818 8.12504 10.3388 8.09823 9.99821 8.25918C9.95899 8.20257 9.91239 8.15044 9.86218 8.10094C11.5718 7.55047 13.2409 7.36116 15.1595 7.24048C15.8989 7.21787 17.0201 7.19271 17.4012 7.16106ZM8.13861 7.71344C8.33541 7.71339 8.49007 7.83586 8.50763 7.99323V7.99418V7.99513C8.53197 8.1986 8.71525 8.29058 8.85929 8.3321C8.97371 8.33398 9.11174 8.36204 9.17984 8.40367C9.37162 8.51511 9.38916 8.64114 9.43454 8.80923C9.44714 9.00138 9.66607 9.13708 9.86435 9.08661C10.0626 9.03622 10.1308 8.94568 10.2254 8.85194C10.4315 8.69851 10.677 8.74063 10.7435 8.92239C10.8551 9.18999 10.9645 9.24542 11.1668 9.25936C11.4562 9.20774 11.5156 9.1184 11.5358 8.95007C11.5553 8.77359 11.6955 8.64078 11.9049 8.64078C12.2289 8.69466 12.2553 8.86348 12.3238 9.09868C12.4558 9.24603 12.5854 9.24879 12.8137 9.33458C13.0419 9.42039 13.0179 9.5329 12.9432 9.74614C12.7687 9.89287 12.6327 9.94262 12.3014 9.91401C11.4154 9.75414 10.5726 9.51993 9.75002 9.27319C8.52446 8.89101 7.54093 8.66719 6.55541 8.51144C6.53151 8.42271 6.51854 8.31942 6.61329 8.24064C6.74928 8.12757 6.95467 8.12031 7.07494 8.20637C7.19521 8.29246 7.29442 8.32874 7.39838 8.32911C7.60299 8.32973 7.76951 8.19237 7.7703 8.02224C7.7703 7.84844 7.92983 7.71349 8.13861 7.71344ZM1.84055 8.67318C4.54757 8.84334 7.11926 9.12032 9.48954 9.85132C12.1894 10.7025 14.686 10.8722 17.4012 11.077V13.5669C17.4012 14.081 16.9065 14.493 16.2883 14.493H2.95052C2.33233 14.493 1.84055 14.081 1.84055 13.5669V8.67318Z" fill="#B923AA"/>
</svg>
