<svg width="18" height="18" viewBox="0 0 18 18" fill="none" xmlns="http://www.w3.org/2000/svg">
<g clip-path="url(#clip0_1025_47022)">
<path d="M15.5466 8.89776C15.3514 8.88978 15.1878 9.04252 15.1805 9.23737C15.1786 9.2878 15.1761 9.33806 15.173 9.38818C15.161 9.58281 15.3091 9.75033 15.5037 9.76239C15.5112 9.76289 15.5185 9.7631 15.5258 9.7631C15.7109 9.7631 15.8664 9.619 15.878 9.43179C15.8814 9.37601 15.8842 9.32002 15.8863 9.26385C15.8936 9.06901 15.7416 8.90508 15.5466 8.89776Z" fill="#EBC100"/>
<path d="M17.4704 5.92129C17.5248 5.81666 17.5246 5.68909 17.4635 5.58274C17.4199 5.50687 17.3513 5.45232 17.2728 5.42514C16.8277 4.39756 16.1882 3.45273 15.3724 2.63706C13.6717 0.936523 11.4103 0 9.005 0C6.59968 0 4.33834 0.936523 2.63752 2.63713C0.936696 4.33773 0 6.59871 0 9.00368C0 10.2834 0.266316 11.522 0.770842 12.6574C0.595561 12.8521 0.499602 13.1012 0.499602 13.3652C0.499602 13.6481 0.609807 13.9141 0.809887 14.1142C1.01644 14.3207 1.28771 14.4239 1.55899 14.4239C1.63771 14.4239 1.71637 14.4149 1.79354 14.3975C2.04938 14.7383 2.33082 15.0635 2.63752 15.3702C3.0738 15.8064 3.54758 16.1914 4.05067 16.5241C3.92776 16.893 4.01268 17.3164 4.30576 17.6095C4.51231 17.816 4.78359 17.9192 5.05487 17.9192C5.32614 17.9192 5.59745 17.816 5.80397 17.6095L5.93961 17.4739C6.90951 17.8242 7.94311 18.0074 9.005 18.0074C11.4103 18.0074 13.6717 17.0708 15.3725 15.3702C17.0733 13.6696 18.01 11.4086 18.01 9.00368C18.01 7.93558 17.8248 6.89608 17.4704 5.92129ZM0.706259 9.00368C0.706259 4.42844 4.42905 0.706155 9.005 0.706155C9.5414 0.706155 10.0657 0.758384 10.5739 0.856228L9.3391 2.09079C9.20096 2.10292 9.07285 2.1185 9.005 2.1185C5.20795 2.1185 2.11881 5.20718 2.11881 9.00368C2.11881 9.701 2.2235 10.3742 2.41721 11.0091L1.31223 12.1139C0.922028 11.1528 0.706259 10.1031 0.706259 9.00368ZM7.76062 4.75362L7.7703 4.90975C7.79801 5.3568 7.63223 5.79482 7.31547 6.11153L2.99254 10.4338C2.88325 9.9746 2.82507 9.49585 2.82507 9.00368C2.82507 5.73573 5.37567 3.05263 8.59091 2.83887L8.42094 3.00881C7.96109 3.4686 7.72042 4.10459 7.76062 4.75362ZM1.30928 13.6148C1.24258 13.5481 1.20586 13.4595 1.20586 13.3652C1.20586 13.2709 1.24258 13.1822 1.30928 13.1155L7.81486 6.61091C8.27472 6.15109 8.51542 5.5151 8.47518 4.8661L8.46551 4.70998C8.43783 4.26292 8.60357 3.82491 8.92037 3.5082L11.3704 1.05864C11.3807 1.04833 11.39 1.03736 11.3988 1.02614L11.466 1.07865C11.6869 1.14737 11.9038 1.2251 12.1163 1.31141L9.60784 3.81953C9.46995 3.9574 9.46995 4.18098 9.60784 4.31888C9.67679 4.38781 9.76719 4.42228 9.85756 4.42228C9.94792 4.42228 10.0383 4.38778 10.1073 4.31888L12.7375 1.68903C12.7583 1.66825 12.7756 1.64532 12.7901 1.62122C13.0109 1.7349 13.2258 1.85831 13.4347 1.99066L13.237 2.18835L10.6067 4.8182C10.4688 4.95607 10.4688 5.17965 10.6067 5.31755C10.6756 5.38648 10.766 5.42095 10.8564 5.42095C10.9468 5.42095 11.0372 5.38645 11.1061 5.31755L14.0236 2.40043C15.1045 3.22367 15.9779 4.30555 16.5509 5.55312L15.5404 5.81908C13.8183 6.27236 12.2424 7.17744 10.9833 8.43644L9.54076 9.87876C9.25851 10.161 9.11345 10.5511 9.14275 10.9492C9.15699 11.1423 9.08661 11.3315 8.9497 11.4684L6.01144 14.4062C5.17559 13.9415 4.45835 13.289 3.9171 12.5055L8.81378 7.60958C9.13054 7.29284 9.56869 7.1275 10.0158 7.15476L10.1719 7.16439C10.821 7.20487 11.4571 6.96396 11.917 6.50417L14.7353 3.6863C14.8732 3.54843 14.8732 3.32485 14.7353 3.18695C14.5974 3.04912 14.3738 3.04912 14.2358 3.18695L11.4176 6.00482C11.1008 6.32156 10.6628 6.48708 10.2155 6.45964L10.0594 6.45001C9.41051 6.40949 8.77425 6.65045 8.31436 7.11023L1.8087 13.6148C1.67106 13.7525 1.44703 13.7524 1.30928 13.6148ZM2.40113 14.0212L3.41033 13.0122C3.96491 13.7837 4.67479 14.4359 5.49404 14.9235L4.46929 15.948C3.67506 15.4276 2.97524 14.7748 2.40113 14.0212ZM5.30461 17.1101C5.1669 17.2479 4.94287 17.2478 4.80519 17.1102C4.66751 16.9726 4.66751 16.7485 4.80519 16.6109L9.44906 11.9677C9.73131 11.6855 9.87641 11.2953 9.84707 10.8973C9.83283 10.7042 9.90321 10.5149 10.0402 10.378L11.4826 8.93573C12.6535 7.765 14.1188 6.9234 15.7202 6.50196L15.9838 6.43253L5.30461 17.1101ZM9.005 17.3012C8.13201 17.3012 7.29025 17.1654 6.49936 16.9143L7.65766 15.7562C8.09353 15.843 8.54399 15.8889 9.00504 15.8889C10.3388 15.8889 11.6336 15.5053 12.7495 14.7798C13.836 14.0734 14.6996 13.0812 15.247 11.9106C15.3296 11.7339 15.2533 11.5238 15.0767 11.4412C14.8999 11.3585 14.6898 11.4348 14.6072 11.6115C13.5927 13.7809 11.3938 15.1827 9.005 15.1827C8.75789 15.1827 8.51423 15.1677 8.27468 15.1392L16.9166 6.49858C17.1677 7.28935 17.3037 8.13085 17.3037 9.00364C17.3037 13.5789 13.5809 17.3012 9.005 17.3012Z" fill="#EBC100"/>
</g>
<defs>
<clipPath id="clip0_1025_47022">
<rect width="18.01" height="18.0074" fill="white"/>
</clipPath>
</defs>
</svg>
