<svg width="23" height="23" viewBox="0 0 23 23" fill="none" xmlns="http://www.w3.org/2000/svg">
<path d="M11.4991 21.1308C16.4777 21.1308 20.5137 17.0961 20.5137 12.1191C20.5137 7.14209 16.4777 3.10742 11.4991 3.10742C6.52039 3.10742 2.48438 7.14209 2.48438 12.1191C2.48438 17.0961 6.52039 21.1308 11.4991 21.1308Z" fill="#CFCFDD" fill-opacity="0.42"/>
<path d="M11.4954 3.10742C11.4943 3.10742 11.4932 3.10746 11.4922 3.10746V21.1307C11.4932 21.1307 11.4943 21.1308 11.4954 21.1308C16.4741 21.1308 20.5101 17.0961 20.5101 12.1191C20.5101 7.14204 16.4741 3.10742 11.4954 3.10742Z" fill="#CFCFDD"/>
<path d="M8.09711 11.4218C8.85404 11.4218 9.46765 10.8084 9.46765 10.0517C9.46765 9.29505 8.85404 8.68164 8.09711 8.68164C7.34018 8.68164 6.72656 9.29505 6.72656 10.0517C6.72656 10.8084 7.34018 11.4218 8.09711 11.4218Z" fill="#132C63"/>
<path d="M14.8393 11.4218C15.5962 11.4218 16.2098 10.8084 16.2098 10.0517C16.2098 9.29505 15.5962 8.68164 14.8393 8.68164C14.0824 8.68164 13.4688 9.29505 13.4688 10.0517C13.4688 10.8084 14.0824 11.4218 14.8393 11.4218Z" fill="#000F35"/>
<path d="M11.5075 18.0756C9.12618 18.0756 6.98988 16.6082 6.06501 14.3371C5.94818 14.0502 6.08602 13.7229 6.37295 13.6061C6.6599 13.4892 6.98717 13.6271 7.10396 13.914C7.85599 15.7606 9.58446 16.9538 11.5075 16.9538C13.4305 16.9538 15.159 15.7606 15.911 13.914C16.0278 13.6271 16.355 13.4891 16.642 13.6061C16.9289 13.7229 17.0668 14.0502 16.9499 14.3371C16.0251 16.6082 13.8888 18.0756 11.5075 18.0756Z" fill="#132C63"/>
<path d="M16.6373 13.6061C16.3504 13.4892 16.0231 13.6271 15.9063 13.914C15.1543 15.7606 13.4258 16.9538 11.5028 16.9538C11.4993 16.9538 11.4957 16.9536 11.4922 16.9536V18.0755C11.4957 18.0755 11.4993 18.0756 11.5028 18.0756C13.8841 18.0756 16.0204 16.6082 16.9453 14.3371C17.0621 14.0502 16.9243 13.7229 16.6373 13.6061Z" fill="#000F35"/>
</svg>
