<svg width="17" height="17" viewBox="0 0 17 17" fill="none" xmlns="http://www.w3.org/2000/svg">
<path fill-rule="evenodd" clip-rule="evenodd" d="M15.1766 6.14174L16.1787 5.22159C16.4558 4.96714 16.4558 4.55522 16.1787 4.30143C15.9016 4.04699 15.4537 4.04699 15.1766 4.30143L14.1744 5.22159L13.1723 4.30143C12.8952 4.04699 12.4466 4.04699 12.1702 4.30143C11.8931 4.55522 11.8931 4.96714 12.1702 5.22159L13.1723 6.14174L12.1702 7.0619C11.8931 7.31634 11.8931 7.72827 12.1702 7.98206C12.3084 8.10895 12.4898 8.17273 12.6713 8.17273C12.8527 8.17273 13.0341 8.10895 13.1723 7.98206L14.1744 7.0619L15.1766 7.98206C15.3148 8.10895 15.4962 8.17273 15.6776 8.17273C15.8591 8.17273 16.0405 8.10895 16.1787 7.98206C16.4558 7.72827 16.4558 7.31634 16.1787 7.0619L15.1766 6.14174ZM14.1744 9.07011C13.7825 9.07011 13.4657 9.36164 13.4657 9.72086V10.3716C13.4657 10.7315 13.7825 11.0224 14.1744 11.0224C14.5664 11.0224 14.8832 10.7315 14.8832 10.3716V9.72086C14.8832 9.36164 14.5664 9.07011 14.1744 9.07011ZM9.66842 12.3024C9.37289 12.1319 9.1135 11.9015 8.91931 11.6334C8.70244 11.3341 8.26233 11.2534 7.93703 11.4531C7.61102 11.6529 7.52314 12.0564 7.74 12.3557C8.04475 12.7748 8.45085 13.1379 8.91577 13.4054C9.0327 13.4731 9.1624 13.5043 9.29139 13.5043C9.52739 13.5043 9.75772 13.3963 9.89238 13.1998C10.1 12.8952 10.0001 12.4937 9.66842 12.3024ZM12.6068 12.0954C12.3375 12.3095 12.0292 12.4638 11.6904 12.5555C11.3155 12.6583 11.1014 13.0195 11.212 13.365C11.3034 13.6475 11.5862 13.8303 11.8917 13.8303C11.9583 13.8303 12.0263 13.8225 12.0929 13.8036C12.6252 13.6592 13.11 13.4158 13.5331 13.0807C13.8293 12.8464 13.8626 12.4351 13.6061 12.1631C13.3509 11.8898 12.9016 11.8605 12.6068 12.0954ZM2.12626 7.62219C1.73505 7.62219 1.41754 7.91373 1.41754 8.27294V9.51522C1.41754 9.87443 1.73505 10.166 2.12626 10.166C2.51747 10.166 2.83498 9.87443 2.83498 9.51522V8.27294C2.83498 7.91373 2.51747 7.62219 2.12626 7.62219ZM3.39061 4.52594C2.88671 4.755 2.44305 5.09599 2.10854 5.51247C1.87608 5.80205 1.9427 6.20942 2.25737 6.42287C2.38423 6.50811 2.53164 6.54976 2.67764 6.54976C2.89522 6.54976 3.10996 6.45801 3.24887 6.28556C3.45014 6.03502 3.71662 5.83003 4.01924 5.69273C4.37006 5.53264 4.51393 5.14219 4.34029 4.82072C4.16595 4.4986 3.74142 4.3665 3.39061 4.52594ZM7.70244 6.51202C8.02562 6.30964 8.10783 5.90422 7.88671 5.60813C7.5692 5.18059 7.13901 4.82528 6.64433 4.5793C6.29989 4.4101 5.87041 4.52659 5.68331 4.8422C5.49762 5.15911 5.6259 5.55347 5.97034 5.72461C6.26729 5.87168 6.52526 6.08578 6.71733 6.34282C6.85411 6.52699 7.07665 6.6259 7.30273 6.6259C7.44022 6.6259 7.57983 6.58881 7.70244 6.51202ZM8.50471 9.60893V8.36665C8.50471 8.00744 8.1872 7.7159 7.79599 7.7159C7.40478 7.7159 7.08728 8.00744 7.08728 8.36665V9.60893C7.08728 9.96814 7.40478 10.2597 7.79599 10.2597C8.1872 10.2597 8.50471 9.96814 8.50471 9.60893ZM2.12626 11.3477C1.73505 11.3477 1.41754 11.6386 1.41754 11.9985V12.6492C1.41754 13.0091 1.73505 13.3 2.12626 13.3C2.51747 13.3 2.83498 13.0091 2.83498 12.6492V11.9985C2.83498 11.6386 2.51747 11.3477 2.12626 11.3477Z" fill="#1164E2"/>
</svg>
